<?xml version="1.0" encoding="utf-8"?>
<!-- Generator: Adobe Illustrator 19.1.0, SVG Export Plug-In . SVG Version: 6.00 Build 0)  -->
<svg version="1.1" xmlns="http://www.w3.org/2000/svg" xmlns:xlink="http://www.w3.org/1999/xlink" x="0px" y="0px"
	 viewBox="0 0 22.012 18.014" enable-background="new 0 0 22.012 18.014" xml:space="preserve">
<g id="search" display="none">
	<g display="inline">
		<path fill="#FFFFFF" d="M17.566,19.029c-0.389,0-0.766-0.16-1.029-0.434l-3.923-3.911c-1.338,0.926-2.939,1.418-4.563,1.418
			C3.602,16.102,0,12.5,0,8.051S3.602,0,8.051,0s8.051,3.602,8.051,8.051c0,1.624-0.492,3.225-1.418,4.563l3.922,3.923
			c0.263,0.263,0.423,0.641,0.423,1.029C19.03,18.366,18.366,19.029,17.566,19.029z M8.051,2.928c-2.825,0-5.123,2.299-5.123,5.123
			s2.299,5.123,5.123,5.123s5.123-2.299,5.123-5.123S10.876,2.928,8.051,2.928z"/>
	</g>
</g>
<g id="House">
	<g>
		<path fill="#212121" d="M21.067,10.435c-0.068,0.082-0.178,0.137-0.287,0.15c-0.014,0-0.027,0-0.041,0
			c-0.109,0-0.205-0.027-0.287-0.095l-9.447-7.877L1.558,10.49c-0.096,0.068-0.205,0.109-0.328,0.095
			c-0.109-0.014-0.218-0.068-0.287-0.15l-0.846-1.01c-0.15-0.178-0.123-0.464,0.054-0.614l9.816-8.178
			c0.574-0.478,1.502-0.478,2.075,0l3.331,2.785V0.756c0-0.246,0.191-0.437,0.437-0.437h2.621c0.246,0,0.437,0.191,0.437,0.437v5.57
			l2.99,2.485c0.177,0.15,0.205,0.437,0.054,0.614L21.067,10.435z M18.869,16.92c0,0.478-0.396,0.874-0.874,0.874h-5.242v-5.242
			H9.258v5.242H4.016c-0.478,0-0.874-0.396-0.874-0.874v-6.553c0-0.027,0.014-0.054,0.014-0.082l7.85-6.471l7.85,6.471
			c0.014,0.027,0.014,0.054,0.014,0.082V16.92z"/>
	</g>
</g>
<g id="nav_menu" display="none">
	<g display="inline">
		<path fill="#FFFFFF" d="M19.03,3.969c0,0.433-0.359,0.792-0.792,0.792H0.807c-0.433,0-0.792-0.359-0.792-0.792V2.384
			c0-0.433,0.359-0.792,0.792-0.792h17.431c0.433,0,0.792,0.359,0.792,0.792V3.969z M19.03,10.307c0,0.433-0.359,0.792-0.792,0.792
			H0.807c-0.433,0-0.792-0.359-0.792-0.792V8.722c0-0.433,0.359-0.792,0.792-0.792h17.431c0.433,0,0.792,0.359,0.792,0.792V10.307z
			 M19.03,16.645c0,0.433-0.359,0.792-0.792,0.792H0.807c-0.433,0-0.792-0.359-0.792-0.792v-1.585c0-0.433,0.359-0.792,0.792-0.792
			h17.431c0.433,0,0.792,0.359,0.792,0.792V16.645z"/>
	</g>
</g>
</svg>
