<svg id="Layer_1" data-name="Layer 1" xmlns="http://www.w3.org/2000/svg" viewBox="0 0 139.4 32.1"><defs><style>.cls-1{fill:none;}.cls-2{fill:#292861;}</style></defs><title>logo-msd</title><rect class="cls-1" x="-6.9" y="-6.3" width="152.8" height="45"/><path class="cls-2" d="M17.9,10a11.31,11.31,0,0,0-3.9.7.1.1,0,0,0,0,.2,11.31,11.31,0,0,1,3.9-.7,12,12,0,0,1,3.9.7.1.1,0,0,0,.1-.1c0-.1,0-.1-.1-.1A12,12,0,0,0,17.9,10Z"/><path class="cls-2" d="M31.4,25.6c.1.2.2.4.2.1,0,.2.1.3.1.1,0,.1.1.2.1,0,0,.1.1.2.1,0,0,.1.1.2.1,0,0,.1.1.1.1,0,0,.1,0,.1.1,0s0-.1-.1,0c0-.1,0-.1-.1,0,.1-.1,0-.1-.1,0,.1-.1,0-.1-.1,0,.1-.1,0-.1-.1,0,.1-.2,0-.1-.1-.1.2-.2,0-.2-.2-.1.3-.2,0-.2-.2-.1C31.3,25.7,31.5,26,31.4,25.6Z"/><path class="cls-2" d="M12,5.6a.4.4,0,0,0,0,.8c.1,0,.3-.1.3-.2,0,.2.1.3.1.5-.1,0-.1-.1-.2-.1a.4.4,0,0,0,0,.8.27.27,0,0,0,.3-.3c0,.1.1.1.1.2l-.2.1.4.8c-.1.1-.2.2-.1.3s.1.1.2.1H13l.4,1-.3.7.8.3v.1a11.78,11.78,0,0,1,8,0v-.1l.8-.3-.3-.7.4-1h.1a.35.35,0,0,0,.2-.1V8.3a.1.1,0,0,0-.1-.1l.4-.8-.2-.1a.35.35,0,0,0,.1-.2.32.32,0,0,0,.3.3.4.4,0,0,0,0-.8c-.1,0-.2,0-.2.1,0-.2.1-.3.1-.5.1.1.2.2.3.2a.4.4,0,0,0,0-.8c-.1,0-.2.1-.3.2a1.09,1.09,0,0,0-.1-.5.37.37,0,0,0,.3.1.43.43,0,0,0,.4-.4.43.43,0,0,0-.4-.4.27.27,0,0,0-.3.3c-.1-.1-.1-.3-.2-.5.1,0,.1.1.2.1a.43.43,0,0,0,.4-.4.43.43,0,0,0-.4-.4c-.3.2-.4.3-.4.5v.1l-.4-.4c.2.1.4-.1.4-.3a.4.4,0,1,0-.8,0c0,.1,0,.2.1.2a3.93,3.93,0,0,1-.6-.2.32.32,0,0,0,.3-.3.4.4,0,1,0-.8,0c0,.1.1.3.2.3h-.5a.37.37,0,0,0,.1-.3.4.4,0,1,0-.8,0c0,.1.1.3.2.3-.2,0-.3.1-.5.1a.37.37,0,0,0,.1-.3.4.4,0,1,0-.8,0c0,.2.2.3.3.4a3.93,3.93,0,0,0-.6.2.37.37,0,0,0,.1-.3.4.4,0,1,0-.8,0c0,.2.2.3.3.4a4.33,4.33,0,0,1-.5.1V3.6a.1.1,0,0,0-.1-.1c.1-.1.2-.2.2-.3a6.85,6.85,0,0,0-1.5,0c.1.1.1.2.2.3a.1.1,0,0,0-.1.1v.6c-.2,0-.3-.1-.5-.1.2,0,.3-.2.3-.4a.4.4,0,1,0-.8,0c0,.1.1.2.2.3.3.1,0,0-.1,0a.43.43,0,0,0,.4-.4.4.4,0,1,0-.8,0,.37.37,0,0,0,.1.3.9.9,0,0,0-.5-.1c.1-.1.2-.2.2-.3a.4.4,0,1,0-.8,0,.37.37,0,0,0,.1.3H14c.1-.1.2-.2.2-.3.2-.3,0-.5-.2-.5a.43.43,0,0,0-.4.4.27.27,0,0,0,.3.3,1.42,1.42,0,0,0-.6.2c.1-.1.1-.1.1-.2a.4.4,0,1,0-.8,0,.43.43,0,0,0,.4.4,1.38,1.38,0,0,0-.4.3V4.3a.4.4,0,1,0-.8,0,.43.43,0,0,0,.4.4h.2a.76.76,0,0,0-.2.4.32.32,0,0,0-.3-.3.43.43,0,0,0-.4.4.43.43,0,0,0,.4.4.37.37,0,0,0,.3-.1,4.33,4.33,0,0,1-.1.5C12.2,5.7,12.1,5.6,12,5.6Zm2,4.7-.6-.3.3-.6.6.3Zm1.3-.5-.2-.7,1-.3.2.7Zm2.6-.2-.8-.5.7-.5.8.5Zm-.2-2.4a.2.2,0,1,1,.2.2C17.8,7.4,17.7,7.4,17.7,7.2Zm2.8,2.6-1-.3.2-.7,1,.3Zm1.9.3-.6.3-.3-.6.6-.3ZM18.8,5.9h-.1V4.6a4.11,4.11,0,0,0,1.5-.5,3,3,0,0,1,2.3,0,1.81,1.81,0,0,1,.8,1.7A3,3,0,0,1,23,7l-.3-.1A1.38,1.38,0,0,1,22.9,8a1.15,1.15,0,0,1-.6-.7l-.5,1.2a1.21,1.21,0,0,1,.5-.1.6.6,0,0,1,.4.1,1.38,1.38,0,0,1-.3.4,2.49,2.49,0,0,1-.8.1h-.2a.65.65,0,0,1-.5-.3c-.2-.3-.1-.2-.1-.4a.1.1,0,0,0,.1-.1c0-.1,0-.1-.1-.1a1.44,1.44,0,0,1,.2-.3h.1c.1,0,.2,0,.2.1s0,.1-.1.2,0,.3,0,.3l.1-.1a.35.35,0,0,1,.2-.1c0-.2.1-.2.1-.2a.59.59,0,0,0,.2-.5.62.62,0,0,0-.2-.4.44.44,0,0,0-.3-.1.37.37,0,0,0-.3.1l-.1.1c0-.1.1-.1.1-.2a.9.9,0,0,0,.1-.5,1.55,1.55,0,0,0-.2-.8c-.1,0-.4.4-.5.6a.9.9,0,0,0-.1.5V7c0-.1,0-.1-.1-.1a.4.4,0,0,0-.4-.2h-.1a.32.32,0,0,0-.3.3q-.15.45,0,.6c0,.1.1.1.1.2s.1.1.1.2.1.1.1.2.1-.1.1-.3V7.7l.1-.1c.1,0,.1.1.2.1a.49.49,0,0,1,.1.3h-.1a.1.1,0,0,0-.1.1v.1a.1.1,0,0,0,.1.1.78.78,0,0,1-.4.3,1.42,1.42,0,0,1-.6.2c-.3,0-.5-.1-.5-.2a1.55,1.55,0,0,1-.5-1,1.55,1.55,0,0,1,1,.5V6.6a1.55,1.55,0,0,1-1,.5A2.18,2.18,0,0,1,18.8,5.9Zm-.9-2.4c.1,0,.2.1.3.2s0,.1-.1.2h-.4c-.1-.1-.1-.1-.1-.2S17.7,3.5,17.9,3.5Zm.2.9c0,.1-.1,0,0,0h-.2c-.1,0-.1,0-.2.1-.1-.1-.1-.1-.1-.2s.1-.2.3-.2.2.1.3.2A.1.1,0,0,0,18.1,4.4Zm-.5.3a.32.32,0,0,1,.3-.3c.1,0,.3.1.3.2s0,.1-.1.2h-.2c-.1,0-.1,0-.2.1S17.6,4.8,17.6,4.7Zm0,.5a.32.32,0,0,1,.3-.3c.1,0,.2.1.3.2s0,.2-.1.2-.1-.1-.2-.1-.1,0-.2.1S17.6,5.2,17.6,5.2Zm.3.1a.3.3,0,1,1-.3.3A.27.27,0,0,1,17.9,5.3ZM13.3,4.2a3,3,0,0,1,2.3,0,6.14,6.14,0,0,0,1.5.5V6H17a1.43,1.43,0,0,1,.6,1.1,1.55,1.55,0,0,1-1-.5V8.1a1.55,1.55,0,0,1,1-.5,1.55,1.55,0,0,1-.5,1c-.1,0-.2.2-.5.2a2.54,2.54,0,0,1-.7-.2.75.75,0,0,1-.3-.3c.1,0,.1-.1.1-.2a.1.1,0,0,0-.1-.1h-.1a.49.49,0,0,1,.1-.3c.1-.1.1-.1.2-.1a.1.1,0,0,1,.1.1v.2L16,8a.31.31,0,0,1,.1-.2c0-.1.1-.1.1-.2s.1-.1.1-.2a1.15,1.15,0,0,0,0-.6c-.1-.3-.1-.2-.3-.3h-.1a.4.4,0,0,0-.4.2l-.1.1V6.6a.9.9,0,0,0-.1-.5c-.1-.3-.4-.6-.5-.6a1.55,1.55,0,0,0-.2.8.9.9,0,0,0,.1.5c0,.1.1.1.1.2l-.1-.1a.37.37,0,0,0-.3-.1L14,7a.4.4,0,0,0-.2.4.59.59,0,0,0,.2.5.77.77,0,0,1,.3.2c.1,0,.1.1.2.1l.1.1s.1-.2,0-.3-.1-.1-.1-.2.1-.1.2-.1h.1A1.44,1.44,0,0,1,15,8a.1.1,0,1,0,0,.2,1,1,0,0,1-.1.4.62.62,0,0,1-.5.4h-.2a1,1,0,0,1-.7-.2,1.38,1.38,0,0,1-.3-.4c.2,0,.3-.1.5-.1a1.21,1.21,0,0,1,.5.1l-.5-1.1a1.15,1.15,0,0,1-.6.7,1.38,1.38,0,0,1,.2-1.1l-.3.2a3,3,0,0,1-.3-1.2C12.5,5.9,12.4,4.7,13.3,4.2Z"/><path class="cls-2" d="M25.8,14.4h0a2.19,2.19,0,0,1,.3-.5c.1-.1.2-.2.2-.3s-.1,0-.1.1-.1.2-.2.3c-.1-.1-.2.1-.2.4Z"/><path class="cls-2" d="M15.9,30.4c-.3,0-.7.1-.2.2-.3,0-.5,0-.2.2-.2-.1-.4,0-.1.1-.2-.1-.4,0-.1.1-.2-.1-.3,0-.1.1-.1,0-.2,0-.1.1-.1,0-.2,0-.1.1-.2,0-.1,0-.1.1s-.1,0-.1.1-.1,0-.1.1l-.1.1h.1c0,.1.1,0,.1-.1,0,.1.1.1.1-.1,0,.1.1.1.1-.1.1.1.1,0,.1-.1.1.1.1,0,.1-.1.1.2.2.1.1-.1.1.3.2,0,.1-.1.1.3.2.1.1-.1.2.3.2.1.2-.2,0,.3.2,0,.2-.3.1.6.3.1.2-.2C15.8,30.1,15.3,30.2,15.9,30.4Z"/><path class="cls-2" d="M6.5,27.2c-.3,0-.7.1-.2.2-.3,0-.5,0-.2.2-.2-.1-.4,0-.1.1-.2-.1-.4,0-.1.1-.2-.1-.3,0-.1.1-.1,0-.2,0-.1.1-.1,0-.2,0-.1.1-.2,0-.1,0-.1.1s-.1,0-.1.1-.1,0-.1.1l-.1.1.1-.1c0,.1.1,0,.1-.1,0,.1.1.1.1-.1,0,.1.1.1.1-.1.1.1.1,0,.1-.1.1.1.1,0,.1-.1.1.2.2.1.1-.1.1.3.2,0,.1-.1.1.3.2.1.1-.1.2.3.2.1.2-.2.1.5.2.2.2-.2.1.6.3.1.2-.2C6.4,26.9,5.9,27.1,6.5,27.2Z"/><path class="cls-2" d="M15.3,30c-.4,0-.7.2-.2.3-.3,0-.6.1-.2.2-.2-.1-.5.1-.1.2-.2,0-.4,0-.1.1-.2-.1-.3,0-.1.1-.1,0-.3,0-.1.1-.1,0-.2,0-.1.1-.2,0-.2,0-.1.1-.1,0-.1,0-.1.1s-.1,0-.1.1l-.1.1a.1.1,0,0,0,.1-.1c0,.1.1,0,.1-.1.1.1.1.1.1-.1,0,.1.1.1.1-.1.1.1.1,0,.1-.1.1.1.2,0,.1-.1.1.2.2.1.1-.1.1.3.2,0,.1-.1.1.3.2.1.1-.2.2.3.2.1.2-.2.1.4.2,0,.2-.3.2.6.3.1.2-.2C15.2,29.6,14.6,29.9,15.3,30Z"/><path class="cls-2" d="M16.3,30.8c-.3-.1-.6,0-.2.2-.2,0-.5,0-.2.2-.2-.1-.4,0-.1.1-.1-.1-.4,0-.1.1-.1-.1-.3,0-.1.1-.1-.1-.2,0-.1.1-.1,0-.2,0-.1.1-.1-.1-.1,0-.1.1h-.2v.1h.1a.1.1,0,0,0,.1-.1c0,.1.1.1.1-.1,0,.1.1.1.1-.1.1.1.1,0,.1-.1.1.1.1,0,.1-.1.1.2.1.1.1-.1.1.2.2.1.1-.1.1.3.2.1.1-.1.1.3.2.1.2-.2,0,.5.1.2.1-.1.1.5.3.1.2-.2C16.3,30.5,15.8,30.6,16.3,30.8Z"/><path class="cls-2" d="M16.8,31.2c-.3,0-.5.1-.2.2-.2,0-.4,0-.2.1-.2-.1-.3,0-.1.1-.1,0-.3,0-.1.1-.1,0-.2,0-.1.1-.1,0-.2,0-.1.1-.1,0-.2,0-.1.1h-.3v.1h.1V32h0c0,.1.1.1.1,0,.1.1.1,0,.1-.1.1.1.1,0,.1-.1.1.2.1,0,.1-.1.1.2.1,0,.1-.1.1.2.2.1.1-.1.1.2.2,0,.2-.1.2.3.3.1.3-.2.1.5.2.1.2-.2C16.7,31,16.3,31.1,16.8,31.2Z"/><path class="cls-2" d="M28.8,26.7c.2-.1.6-.6,0-.3C28,26.2,28.6,26.7,28.8,26.7Z"/><path class="cls-2" d="M31.1,26c.1.2.2.4.2.1,0,.2.1.4.2.1,0,.2.1.3.1.1,0,.1.1.3.1.1,0,.1.1.2.1,0,0,.1.1.2.1,0,0,.1.1.1.1,0,0,.1,0,.1.1,0,0,.1,0,.1.1,0,0,.1,0,.1.1,0h0s0-.1-.1,0,0-.1-.1,0c.1-.1,0-.1-.1,0,.1-.1,0-.1-.1,0,.1-.1,0-.1-.1,0,.2-.1,0-.1-.1-.1.2-.1,0-.2-.1-.1.2-.2,0-.2-.2-.1.2-.2-.1-.2-.3-.1.4-.2,0-.2-.2-.1C30.9,26.1,31.1,26.5,31.1,26Z"/><path class="cls-2" d="M28,26.4c.2-.2.4-.6,0-.3.2-.2.3-.4,0-.3.2-.1.3-.3,0-.2.1-.1.2-.3,0-.2.2-.1.2-.3,0-.2.1-.1.1-.2,0-.1.1,0,.1-.2,0-.1.1-.1.1-.1,0-.1.1-.1.1-.1,0-.1.1-.1.1-.1,0-.1v0c-.1,0-.1,0,0,.1-.1,0-.1,0,0,.1-.1,0-.1,0,0,.1-.2,0-.1.1,0,.1-.2,0-.1.1,0,.1-.2-.1-.2.1,0,.2-.3-.1-.1.1,0,.2-.3-.1-.2.1,0,.2-.4-.1-.2.1,0,.3-.4-.3-.3.1,0,.3-.6-.3-.3.2,0,.3C28.3,26.5,28.5,26,28,26.4Z"/><path class="cls-2" d="M4.7,26.1c-.3-.1-.6-.1-.3.1-.2-.1-.4-.1-.2.1-.1-.1-.3-.1-.1.1-.1-.2-.2-.2-.1,0-.1-.1-.2-.1-.1,0-.1-.1-.2,0-.1,0-.1-.1-.1,0-.1,0s-.1,0-.1,0h0c0,.1,0,.1.1,0,0,.1.1.1.1,0,0,.1.1,0,.1,0s.1.1.1,0c0,.2.1.1.1,0,0,.2.1.1.1-.1,0,.2.1.1.1-.1,0,.3.1.1.2-.1-.1.4.1.2.2,0-.1.4.2.1.2-.1C4.7,25.8,4.3,25.8,4.7,26.1Z"/><path class="cls-2" d="M29.2,27.2c0,.3.1.7.2.2,0,.3,0,.5.2.2-.1.2,0,.4.1.1-.1.2,0,.4.1.1-.1.2,0,.3.1.1,0,.1,0,.2.1.1,0,.1,0,.2.1.1,0,.2,0,.1.1.1s0,.1.1.1,0,.1.1.1h.1v-.1c.1,0,0-.1-.1-.1.1,0,.1-.1-.1-.1.1,0,.1-.1-.1-.1.1-.1,0-.1-.1-.1.1-.1,0-.1-.1-.1.2-.1.1-.2-.1-.1.3-.1,0-.2-.1-.1.3-.1.1-.2-.1-.1.3-.2.1-.2-.2-.2.4,0,.1-.1-.3-.1.6-.1.1-.3-.2-.2C28.9,27.3,29.1,27.8,29.2,27.2Z"/><path class="cls-2" d="M28.4,27.5c-.1.3,0,.7.2.3-.1.3,0,.5.2.2-.1.2,0,.4.1.2-.1.2,0,.4.1.1-.1.2,0,.3.1.1-.1.1,0,.2.1.1-.1.1,0,.2.1.1-.1.2,0,.1.1.1v.1c0,.1,0,.1.1.1l.1.1v-.1c.1,0,0-.1-.1-.1.1,0,.1-.1-.1-.1.1,0,.1-.1-.1-.1.2-.1,0-.1-.1-.1.1-.1.1-.1-.1-.1.2-.1.1-.2-.1-.1.3-.1.1-.2-.1-.1.3-.1.1-.2-.1-.2.4-.1.1-.2-.2-.2.5-.1.2-.3-.2-.3.6-.1.1-.3-.2-.2C28.1,27.6,28.2,28.1,28.4,27.5Z"/><path class="cls-2" d="M18.8,31.4s.1,0,.1-.2c0,.2,0,.4.1.3a.35.35,0,0,0,.1-.2c0,.1,0,.3.1.3a.1.1,0,0,0,.1-.1c0,.1,0,.2.1.2l.1-.1c0,.1,0,.2.1.2v-.1c0,.1,0,.2.1.1,0,.1,0,.2.1.1,0,.1,0,.1.1,0,0,.1,0,.1.1,0h.1v-.1h-.4v-.1h0a.14.14,0,0,0-.2,0h.1c.1-.1-.1-.1-.2,0,.1-.1.1-.1-.1-.1h-.1c.2-.1.1-.1,0-.1H19c.2,0,.2-.1.1-.1h-.3c.2,0,.2-.1.2-.1s-.2-.1-.4,0C18.7,31.2,18.8,31.4,18.8,31.4Z"/><path class="cls-2" d="M21.1,29.6c-.1.4,0,.8.2.3-.1.3,0,.6.2.3-.1.2,0,.5.2.2-.1.2,0,.4.1.2-.1.2,0,.4.1.1-.1.1,0,.3.1.1-.1.1,0,.2.1.1-.1.2,0,.2.1.1,0,.1,0,.1.1.1s0,.1.1.1l.1.1v-.1c.1,0,0-.1-.1-.1.1,0,.1-.1-.1-.1.1,0,.1-.1-.1-.1.2-.1,0-.1-.1-.1.2-.1.1-.2-.1-.1.2-.1.1-.2-.1-.1.3-.1.1-.2-.1-.1.4-.1.1-.2-.1-.2.4-.1.1-.2-.2-.3.4-.2,0-.4-.4-.4.7-.1.1-.3-.2-.3C20.7,29.6,20.9,30.2,21.1,29.6Z"/><path class="cls-2" d="M29.9,26.9c0,.3.2.6.2.2,0,.2.1.5.2.2,0,.2.1.4.2.1,0,.1.1.3.1.1,0,.2.1.3.1.1,0,.1,0,.2.1.1,0,.1,0,.2.1.1,0,.1,0,.1.1.1s0,.1.1.1,0,.1.1.1h.1V28s0-.1-.1,0c.1,0,0-.1-.1,0,.1,0,.1-.1-.1-.1.1-.1,0-.1-.1-.1.1-.1,0-.1-.1-.1.2-.1,0-.2-.1-.1.2-.1,0-.2-.1-.1.3-.1.1-.2-.1-.1.3-.2,0-.2-.2-.2.2-.3-.1-.4-.4-.3.6-.2,0-.3-.2-.2C29.6,27,29.8,27.4,29.9,26.9Z"/><path class="cls-2" d="M20.4,30c0,.4.1.7.2.3,0,.3,0,.6.2.2-.1.2,0,.4.1.2-.1.2,0,.4.1.1-.1.2,0,.3.1.1-.1.1,0,.2.1.1-.1.1,0,.2.1.1-.1.2,0,.2.1.1,0,.1,0,.1.1.1s0,.1.1.1l.1.1a.1.1,0,0,0-.1-.1c.1,0,0-.1-.1-.1.1,0,.1-.1-.1-.1.1,0,.1-.1-.1-.1.2-.1,0-.1-.1-.1.1-.1,0-.2-.1-.1.2-.1.1-.2-.1-.1.3-.1.1-.2-.1-.1.3-.1.1-.2-.1-.2.4-.2.1-.2-.2-.2.6-.2.2-.3-.2-.3.7-.1.1-.3-.2-.2C20.1,30,20.3,30.6,20.4,30Z"/><path class="cls-2" d="M19.4,30.8c0,.3.2.6.2.2,0,.2.1.5.2.2,0,.2.1.4.1.1,0,.1.1.3.1.1,0,.2.1.3.1.1,0,.1,0,.2.1.1,0,.1,0,.2.1.1,0,.1,0,.1.1.1s0,.1.1.1,0,.1.1.1h.1v-.1s0-.1-.1,0c.1,0,0-.1-.1,0,.1,0,.1-.1-.1-.1.1-.1,0-.1-.1-.1.1-.1,0-.1-.1-.1.2-.1,0-.2-.1-.1.2-.1,0-.2-.1-.1.3-.1.1-.2-.1-.1.3-.2,0-.2-.2-.2.3-.3,0-.4-.3-.3.5-.2,0-.3-.2-.2C19.1,30.9,19.3,31.3,19.4,30.8Z"/><path class="cls-2" d="M19.7,30.6s.1,0,.1-.2c0,.2,0,.4.1.4s.1,0,.1-.2c0,.2,0,.3.1.3a.1.1,0,0,0,.1-.1v.3a.1.1,0,0,0,.1-.1v.2a.1.1,0,0,0,.1-.1v.2a.1.1,0,0,0,.1-.1v.2l.1-.1v.1l.1-.1v.1l.1-.1v.2h.1v-.2h-.1s.1,0,0-.1h-.1s.1-.1,0-.1h-.1a.1.1,0,0,0,.1-.1h-.1c.1,0,.1-.1,0-.1h-.1a.1.1,0,0,0,.1-.1h-.2a.1.1,0,0,0,.1-.1h-.2c.1-.1.2-.1.1-.1h-.3c.1-.1.2-.1.1-.2s-.2-.1-.3,0c.2,0,.2-.1.2-.1s-.2-.1-.4-.1c.2-.1.3-.1.2-.2a.45.45,0,0,0-.5,0C19.6,30.3,19.6,30.6,19.7,30.6Z"/><path class="cls-2" d="M16.8,1.8a1.2,1.2,0,0,1,.8-.4,1.4,1.4,0,0,1-.4.8h.3a.75.75,0,0,0-.5.7,3.54,3.54,0,0,1,.6-.1V2.2h.1v.7a.1.1,0,0,1-.1.1c-.3,0-.5,0-.6.1h-.1v.3H17a8.09,8.09,0,0,1,1.6,0V3.1c0-.1-.3-.1-.6-.1a.1.1,0,0,1-.1-.1V2.2H18v.6c.3,0,.5,0,.6.1a.94.94,0,0,0-.5-.7h.3a1.2,1.2,0,0,1-.4-.8,1.19,1.19,0,0,1,.8.4V.5a1.74,1.74,0,0,1-.9.4,1.36,1.36,0,0,1,.5-.9H16.8a1.36,1.36,0,0,1,.5.9,1.74,1.74,0,0,1-.9-.4ZM17.9.9a.22.22,0,0,1,.2.2.2.2,0,0,1-.4,0A.22.22,0,0,1,17.9.9Z"/><path class="cls-2" d="M30.7,21.5h.1v-.1h.1v-.1a1.15,1.15,0,0,1,0-.6A.63.63,0,0,0,30.7,21.5Z"/><path class="cls-2" d="M32.8,19.2c.1.1.1,0,.1,0a1.63,1.63,0,0,0,0-.7h-.1v.2a.37.37,0,0,1-.1.3c0,.1,0,.1.1.2,0-.1,0-.1.1-.2C32.8,19.1,32.8,19.1,32.8,19.2Z"/><path class="cls-2" d="M31.8,16.4h0c0-.3,0-.7-.2-.8V15a.1.1,0,0,0-.1-.1v1a12.13,12.13,0,0,1,.1,1.8v.7h-.1c0,.1.1.2.1.3,0,.4-.1.7-.1,1.1a2,2,0,0,1-.1.7h.1c0-.3.1-.5.1-.7a1.27,1.27,0,0,1,.1-.6h.1v.2a.1.1,0,0,0,.1.1c.1,0,.1,0,.1-.1v-.5c0-.1-.1-.2-.2-.3v-.7a.1.1,0,0,0,.1-.1v-.1a4.33,4.33,0,0,0,.1-.5V18h.1a2.13,2.13,0,0,0,0-.8.52.52,0,0,0-.2-.4.1.1,0,0,0-.1-.1h-.1v-.4c0,.2,0,.2.1.1-.1,0-.1-.3-.2-.5C31.7,16,31.7,16.2,31.8,16.4Zm0,1.3h0v-.8A2.08,2.08,0,0,1,31.8,17.7Z"/><path class="cls-2" d="M32.1,9.6h0a.1.1,0,0,0-.1.1.3.3,0,0,1,0,.4v.5h.1a.19.19,0,0,0,0-.3V10c0,.2.1.4.1.6a.1.1,0,1,0,.2,0C32.4,10.2,32.4,9.7,32.1,9.6Z"/><path class="cls-2" d="M32.5,17.9c0,.1.1.1,0,0h.1a.6.6,0,0,0,.1-.4v.3a.1.1,0,0,0,.1-.1,1.45,1.45,0,0,0-.1-.6.1.1,0,0,0-.1.1A2,2,0,0,1,32.5,17.9Z"/><path class="cls-2" d="M31.2,16.5c0,.1.1.3.1.4a.1.1,0,0,0,.2,0c0-.1-.1-.3-.1-.4s-.1-.2-.1-.4,0-.1-.1-.1a.1.1,0,0,0-.1.1c0,.2,0,.3-.1.4s-.1.2-.1.3a.1.1,0,0,0,.2,0C31.1,16.6,31.1,16.6,31.2,16.5Z"/><path class="cls-2" d="M31.2,11.4c.1.1.1,0,.1,0,0-.2,0-.3.1-.4v.3h.1c.1-.1-.1-.7-.1-.8h-.1a.1.1,0,0,0-.1.1Z"/><path class="cls-2" d="M29.8,15.1c.1.1.1,0,.1,0a.37.37,0,0,0,.1-.3v.3h.1c.1-.2-.1-.7-.1-.8s-.1-.1-.1,0-.1,0,0,.1A2.64,2.64,0,0,1,29.8,15.1Z"/><path class="cls-2" d="M31.7,21h0c.1.1.1,0,.1,0v-.1a2,2,0,0,0-.1-.7h-.1v.1a.66.66,0,0,1-.1.6v.2c.1-.1.1-.1.2-.1v0Z"/><path class="cls-2" d="M31.1,18.5h.1c.1-.1,0-.4,0-.5v.5c-.2-.1-.2-.1-.1,0v0Z"/><path class="cls-2" d="M31.5,13.5h0l-.1.1c0,.1.1.5-.1.6a1.27,1.27,0,0,0,.1-.6,1.09,1.09,0,0,1,.1.5.1.1,0,1,0,.2,0C31.8,14.2,31.8,13.7,31.5,13.5Z"/><path class="cls-2" d="M32.3,11.8h-.1v.1a.45.45,0,0,1,0,.5v.1h.1v0a.1.1,0,0,0,.1.1c.1,0,.1,0,.1-.1a2.07,2.07,0,0,0-.2-.6C32.4,11.9,32.3,11.8,32.3,11.8Z"/><path class="cls-2" d="M29.3,15.5c.1.2,0,.4,0,.5v.2h.1a.1.1,0,0,0,.1-.1v0a.1.1,0,0,0,.1.1c.1,0,.1,0,.1-.1s-.1-.5-.4-.6Z"/><path class="cls-2" d="M29.5,13.5c0-.1,0-.1-.1-.1a.1.1,0,0,0-.1.1v.3c0,.2.1.4,0,.5h.1a.31.31,0,0,0,.1-.2c0,.1.1.2,0,.3v.1h.1a.66.66,0,0,0-.1-.6C29.6,13.7,29.6,13.6,29.5,13.5Z"/><path class="cls-2" d="M29,21.8h.1A5.38,5.38,0,0,0,29,21c-.1.2-.3.8-.1,1,0-.1,0-.1.1-.2-.1.1-.1,0,0,0-.1,0-.1-.3,0-.6Z"/><path class="cls-2" d="M29.6,17h-.1a3.14,3.14,0,0,1-.1.9V18h.1a.31.31,0,0,1,.1-.2V18h.1v-.4C29.7,17.3,29.7,17.1,29.6,17Z"/><path class="cls-2" d="M29.8,16.9h-.1a14.28,14.28,0,0,1-.2,3.3v-.1h-.1a.9.9,0,0,1-.1.5v.3s0,.1.1,0v0a.1.1,0,0,0,.1-.1v-.3A13,13,0,0,0,29.8,16.9Z"/><path class="cls-2" d="M28.7,20.5h.1c-.1-.2,0-.4,0-.6a1.27,1.27,0,0,0,.1.6H29c0-.1-.1-.4-.1-.5v-.3h-.1v.1C28.6,19.9,28.6,20.2,28.7,20.5Z"/><path class="cls-2" d="M28.1,22.9h0a9,9,0,0,0,.5-.9.1.1,0,0,0-.1.1A5.56,5.56,0,0,0,28.1,22.9Z"/><path class="cls-2" d="M30.7,20c0,.1.1.1,0,0h.1v.2h.1V20c0-.2,0-.4-.2-.5h-.1v.3C30.8,19.8,30.7,19.9,30.7,20Z"/><path class="cls-2" d="M28.1,22.4c.2-.3.4-.8.5-.9h-.1c-.2.1-.5.8-.4.9Z"/><path class="cls-2" d="M30.9,15.2c.1,0,.1-.1,0,0a1.09,1.09,0,0,0,.1-.5v-.3a.76.76,0,0,0,.1.4c0,.1.1.2.1.3a.1.1,0,0,0,.1.1.37.37,0,0,0-.1-.3c0-.2-.1-.4,0-.6v-.1h-.1a.73.73,0,0,0-.2.6Z"/><path class="cls-2" d="M31.1,13.2h0a2.19,2.19,0,0,0,.3-.5v.5a.1.1,0,0,0,.1.1c.1,0,.1,0,.1-.1v-.8a.1.1,0,0,0-.1-.1c-.1,0-.1,0-.1.1A2.61,2.61,0,0,0,31.1,13.2Z"/><path class="cls-2" d="M31.8,24.8c.1-.1.2-.3,0-.2.1-.1.1-.2,0-.1.1-.1.1-.2,0-.1.1-.1.1-.2,0-.1.1-.1.1-.1,0-.1.1,0,.1-.1,0-.1.1-.1,0-.1,0,0s-.1,0,0,0h0c-.1,0,0,0,0,.1s-.1.1,0,.1c-.1,0-.1.1,0,.1-.2,0-.1.1,0,.1-.2,0-.1.1,0,.1C31.5,24.6,31.6,24.7,31.8,24.8Z"/><path class="cls-2" d="M27.6,18.5a7.93,7.93,0,0,1,.4-.9h-.1a5.94,5.94,0,0,0-.4.8v-.6c0-.1.1-.2.1-.3a.76.76,0,0,0,.2-.4h-.1c0,.1-.1.2-.2.3s-.1.1-.1.2a.37.37,0,0,0-.1.3v3h.1a11.48,11.48,0,0,0,.1-1.9,1.09,1.09,0,0,1,.1-.5Z"/><path class="cls-2" d="M32.3,24.2c.1-.1.1-.2,0-.1.1-.1.1-.2,0-.1.1-.1.1-.1,0-.1.1-.1,0-.1,0-.1v-.1h0c-.1,0,0,0,0,.1s-.1.1,0,.1c-.1,0,0,.1,0,.1s-.1.1,0,.1C32.1,24.1,32.2,24.2,32.3,24.2Z"/><path class="cls-2" d="M32.1,24.5c.1-.1.1-.2,0-.1.1-.1.1-.2,0-.1.1-.1.1-.2,0-.1.1-.1.1-.1,0-.1.1,0,.1-.1,0-.1h0c.1-.1,0-.1,0,0h0c-.1,0-.1.1,0,.1-.1,0-.1.1,0,.1-.2,0-.1.1,0,.1-.2,0-.1.1,0,.1C31.8,24.4,31.9,24.4,32.1,24.5Z"/><path class="cls-2" d="M31,25.1c.1-.2.2-.4,0-.2.1-.1.2-.3,0-.2.1-.1.1-.2,0-.1.1-.1.1-.2,0-.1.1-.1.1-.2,0-.1.1,0,.1-.1,0-.1.1,0,.1-.1,0-.1.1-.1,0-.1,0,0,.1-.1,0-.1,0,0v-.1h0c-.1,0-.1,0,0,.1-.1,0-.1.1,0,.1-.1,0-.1.1,0,.1-.2,0-.1.1,0,.1-.2,0-.1.1,0,.1-.2,0-.1.1,0,.2-.2,0-.1.2,0,.3-.3-.1-.2.1,0,.2C31.2,25.2,31.3,24.9,31,25.1Z"/><path class="cls-2" d="M32.6,23.8c.1-.1.1-.2,0,0,0-.1,0-.2-.1-.1.1-.1,0-.1,0,0s-.1,0,0,0h0c-.1,0,0,.1,0,0s-.1.1,0,0l.1.1C32.5,23.7,32.5,23.8,32.6,23.8Z"/><path class="cls-2" d="M31.1,25.4c.1-.1.4-.4,0-.2C30.6,25.2,31,25.4,31.1,25.4Z"/><path class="cls-2" d="M32.8,23.5c.1,0,.1-.1,0,0,0-.1,0-.2-.1-.1h0c-.1,0,0,.1,0,0-.1.1,0,.1.1.1h0C32.7,23.5,32.7,23.6,32.8,23.5Z"/><polygon class="cls-2" points="33 23.3 33 23.2 32.8 23.1 32.9 23.3 33 23.3"/><path class="cls-2" d="M32.5,24c.1-.1.1-.2,0,0,0-.1.1-.2-.1-.1.1-.1.1-.1,0-.1.1-.1,0-.1,0-.1s0-.1,0,0-.1,0,0,0h0c-.1,0,0,.1,0,.1s-.1.1,0,.1c-.1,0-.1,0,.1.1C32.3,23.9,32.3,24,32.5,24Z"/><path class="cls-2" d="M31.5,25.1c.1-.1.2-.3,0-.1.1-.1.2-.3,0-.2.1-.1.1-.2,0-.1.1-.1.1-.2,0-.1.1-.1.1-.2,0-.1.1-.1.1-.1,0-.1.1,0,.1-.1,0-.1h0c.1-.1,0-.1,0,0s-.1,0,0,0h0c-.1,0-.1.1,0,.1-.1,0-.1.1,0,.1-.2,0-.1.1,0,.1-.2,0-.1.1,0,.1-.2,0-.1.1,0,.1-.2-.1-.1.1,0,.2C31.1,24.8,31.3,25.1,31.5,25.1Z"/><path class="cls-2" d="M26.9,19.8h0a5.19,5.19,0,0,0,0-1.3Z"/><path class="cls-2" d="M27.4,17.4c0-.2.2-.4.3-.6a.37.37,0,0,0,.1-.3.1.1,0,0,0,.1-.1v-.1a2.48,2.48,0,0,0-.1-.9h-.1a1.27,1.27,0,0,1-.1.8v.1a.1.1,0,0,0,.1-.1v.2h-.1c0,.1-.1.2-.1.3a4.88,4.88,0,0,0-.3.7C27.3,17.4,27.3,17.5,27.4,17.4Z"/><path class="cls-2" d="M27.3,21.1c.1,0,.1-.2.1-.3v-.1h-.1c0,.2-.1.3,0,.4C27.2,21,27.2,21.1,27.3,21.1Z"/><path class="cls-2" d="M26.9,21l.1-.3v-.1h-.1V21Z"/><path class="cls-2" d="M27.3,19.9a5.19,5.19,0,0,0,0-1.3c-.1.6-.1,1.3,0,1.3Z"/><path class="cls-2" d="M26.5,20.8h0l.1-.3v-.1h-.1Z"/><polygon class="cls-2" points="33.1 23 33.2 23 33.2 22.9 33.1 22.8 33.1 23"/><path class="cls-2" d="M26.7,25.3c.1.1.1,0,0,0,.4-.1.4-.3.4-.4v-.1a.1.1,0,0,0-.1-.1c-.1,0-.1,0-.1.1v.1C27,25,27,25.1,26.7,25.3Z"/><path class="cls-2" d="M26.5,19.7h0a5.19,5.19,0,0,0,0-1.3Z"/><path class="cls-2" d="M15,27.5a.35.35,0,0,1-.2-.1.31.31,0,0,1-.2-.1h-.1a.1.1,0,0,1,0,.2c-.1.2-.5.6-.5.8V27.1l-.1.1-.7.8V26.9h.1a.35.35,0,0,1-.2-.1.31.31,0,0,1-.2-.1H13v1.6l.1-.1c.1-.1.6-.7.7-.8l.1,1.1v.1l.1-.1a8.74,8.74,0,0,1,.8-1c.1-.1.1-.2.2-.2Z"/><path class="cls-2" d="M4.5,8.7c-.1-.1-.1,0-.1,0a1.85,1.85,0,0,0,.2.7,1.7,1.7,0,0,1,.1.7c0,.2,0,.1.1.1a.1.1,0,0,0,.1-.1c0-.2-.1-.5-.1-.7A1.08,1.08,0,0,1,4.5,8.7Z"/><polygon class="cls-2" points="1.2 12.1 1.1 11.8 1 12.1 0.7 12.1 0.9 12.3 0.7 12.6 1.1 12.5 1.4 12.7 1.3 12.4 1.6 12.2 1.2 12.1"/><path class="cls-2" d="M8.1,5.2c-.1,0-.3.1-.4.1h.1a.31.31,0,0,1,.2.1C8.1,5.5,8.1,5.4,8.1,5.2Z"/><path class="cls-2" d="M7.7,5.1c.1,0,.2-.1.3-.1H7.9c-.1,0-.2,0-.2.1Z"/><path class="cls-2" d="M6.7,19.4H6.6c.6,1.7,1.2,2.3,1.6,2.5,0,.1.2.1.2.1h.2v-.1H8.5a.48.48,0,0,1-.4,0A4.85,4.85,0,0,1,6.7,19.4Z"/><polygon class="cls-2" points="2.1 11.2 2 10.8 2.4 10.6 2 10.6 1.9 10.3 1.7 10.6 1.4 10.6 1.6 10.8 1.5 11.1 1.8 10.9 2.1 11.2"/><path class="cls-2" d="M5.6,24.9c0,.1,0,.1.1.1a.44.44,0,0,1,.5.1c.1,0,.1.1.2.1a.1.1,0,0,0,0-.2.1.1,0,0,1-.1-.1C6.1,25,5.9,24.8,5.6,24.9Z"/><polygon class="cls-2" points="2.3 11.7 2.1 12 1.7 12 1.9 12.3 1.8 12.6 2.1 12.5 2.5 12.8 2.4 12.3 2.8 12.2 2.3 12.1 2.3 11.7"/><path class="cls-2" d="M28.3,5.8a.63.63,0,0,1-.1.8.48.48,0,0,0,.1-.8Z"/><path class="cls-2" d="M7.9,19.9h.2v-.1H8c-.4-.2-1.3-3-.9-6.3a.1.1,0,1,0-.2,0C6.4,16.7,7.4,19.6,7.9,19.9Z"/><path class="cls-2" d="M21.1,15.6h.2l.1.1c.1,0,.1-.1.1-.2h.1l.1-.1h.1a.1.1,0,0,1,.1.1v.1c-.1,0-.1.1-.2.1h-.2v.1c0,.1,0,.2-.1.2s-.1.1,0,.2v-.1h.1V16h.1c.1,0,.2,0,.2-.1l.1-.1c0-.1-.1-.1-.2-.1h-.1c-.1,0-.2,0-.2.1v.1a.1.1,0,0,1-.1-.1v0c-.1-.3-.2-.3-.2-.2v-.1C21,15.5,21,15.6,21.1,15.6Z"/><path class="cls-2" d="M28.2,5.9a.59.59,0,0,1-.2.7A.43.43,0,0,0,28.2,5.9Z"/><path class="cls-2" d="M29.9,12.2v.3s0,.1.1,0v-.2c.1.3.1.4.2.4a.1.1,0,0,0,0-.2l-.2-.8a.1.1,0,0,0-.1-.1c-.1,0-.1,0-.1.1v.1A.76.76,0,0,1,29.9,12.2Z"/><path class="cls-2" d="M28.1,5.5a.31.31,0,0,1,.2-.1H28a.1.1,0,0,0,.1.1v.1c-.1-.2-.1-.2,0-.1h0Zm.1-.1Z"/><path class="cls-2" d="M7.5,10.6a3.09,3.09,0,0,0-.2.8.1.1,0,1,0,.2,0c0-.2.1-.5.1-.8a5.76,5.76,0,0,0,.2-1,.1.1,0,1,0-.2,0A1.86,1.86,0,0,1,7.5,10.6Z"/><path class="cls-2" d="M16,14.7h-.3l.2.4a.1.1,0,0,1,.1.1c.1,0,.1,0,.2.1a.1.1,0,0,0,.1.1v.1a.1.1,0,0,0-.1.1v.2a.1.1,0,0,0,.1.1h.3v-.1l.1.1h.4l.2.3c0,.1.1.1.2.1V16l-.1-.2h.2l.2.3c0,.1.1.1.2.1v-.3l-.1-.2h.2l.2.3c0,.1.1.1.2.1s.1-.1,0-.2l-.1-.2h.2l.2.3c0,.1.1.1.2.1v-.3l-.1-.2c.2-.1.3-.2.3-.4a.22.22,0,0,1,.2-.2c.1-.1.1-.1.2-.1s.1,0,.2-.1l.2-.3h-.3l-.3-.4v-.5H19v.3h.3v.2l-.3.6h-.2c0,.1,0,.2-.1.2a.35.35,0,0,1-.2.1l-.3-1.2h.1c.1,0,.1,0,.2-.1l.1-.1.1-.1h.1a.22.22,0,0,0,.2-.2l.1-.1H19l-.4.2-.5-.4.1-.3h-.3v-.5h-.1v.1c-.2,0-.2.1-.2.1l-.1.1h-.4l-.2.2a.1.1,0,0,0,.1-.1l.1-.1h.4a.35.35,0,0,1,.2-.1v.2h-.3l.1.3h.1l-.7.8-.3.3h.8l-.2,1h-.1a.31.31,0,0,1-.2-.1c0-.1-.1-.1-.1-.2h-.2l-.3-.4v-.5h-.4v.3h.3v.2l-.2.4Zm.3,0h-.2l.2-.3Zm3.1-.3.2.3h-.2Zm-.1,0v.3h-.2Zm-.9.6h-.5V14c.1,0,.2,0,.2-.1Zm0-1.8-.3.1-.1-.2Zm-.4.2-.1-.3Zm-.2-.2v.3h-.1Zm-.5.5.3-.4-.1.3Zm.3.4.1-.1h.1v1h-.5Zm-1.3.3.2.3h-.2Z"/><path class="cls-2" d="M18,26a.31.31,0,0,0,.1-.2l-.1-.2h.2l.2.3c0,.1.1.1.2.1s.1-.1,0-.2l-.1-.2h.2l.2.3c0,.1.1.1.2.1v-.3l-.1-.2c.2-.1.3-.2.3-.4a.22.22,0,0,1,.2-.2c.1-.1.1-.1.2-.1s.1,0,.2-.1l.2-.3h-.3l-.4-.4v-.5H19v.3h.3V24l-.3.4h-.2c0,.1,0,.2-.1.2a.35.35,0,0,1-.2.1l-.3-1.2h.1c.1,0,.1,0,.2-.1l.1-.1.1-.1h.1A.22.22,0,0,0,19,23l.1-.1H19l-.4.2-.5-.2.1-.3h-.3v-.5h-.1v.1c-.2,0-.2.1-.2.1l-.1.1h-.4l-.2.2a.1.1,0,0,0,.1-.1l.1-.1h.4a.35.35,0,0,1,.2-.1v.2h-.3l.1.3h.1l-.7.8-.5.2h.8l-.2.9h-.1a.31.31,0,0,1-.2-.1c0-.1-.1-.1-.1-.2h-.2l-.1-.4v-.5h-.4v.3h.3V24l-.2.4h-.3l.2.4a.1.1,0,0,1,.1.1c.1,0,.1,0,.2.1a.1.1,0,0,0,.1.1v.1a.1.1,0,0,0-.1.1v.2a.1.1,0,0,0,.1.1h.3v-.1l.1.1h.4l.2.3c0,.1.1.1.2.1v-.3l-.1-.2h.2l.2.3C17.8,26,17.9,26,18,26Zm1.4-1.8.2.3h-.2Zm-.1,0v.3h-.2Zm-.9.6h-.5v-1c.1,0,.2,0,.2-.1Zm0-1.8-.3.1-.1-.2Zm-.4.2-.1-.3Zm-1.7,1.2h-.2l.2-.3h0l.2.3Zm1-.9.3-.4-.1.3Zm.5,1.3h-.5l.2-.9a.1.1,0,0,0,.1-.1h.2Zm0-1.5v0Z"/><path class="cls-2" d="M7.5,11.6l.1.1c.1-.2.1-.3.2-.5a6.89,6.89,0,0,1,.3-.8v-.1H8a6.89,6.89,0,0,1-.3.8C7.6,11.3,7.6,11.4,7.5,11.6Z"/><path class="cls-2" d="M16.1,20c.1,0,.1,0,.2.1a.1.1,0,0,0,.1.1v.1a.1.1,0,0,0-.1.1v.2a.1.1,0,0,0,.1.1h.3v-.1l.1.1h.4l.2.3c0,.1.1.1.2.1v-.3l-.1-.2h.2l.2.3c0,.1.1.1.2.1v-.3l-.1-.2h.2l.2.3c0,.1.1.1.2.1s.1-.1,0-.2l-.1-.2h.2l.2.3c0,.1.1.1.2.1v-.3l-.1-.2c.2-.1.3-.2.3-.4a.22.22,0,0,1,.2-.2c.1-.1.1-.1.2-.1s.1,0,.2-.1l.2-.3h-.3l-.3-.4v-.5h-.4V19h.3v.2l-.4.4h-.2c0,.1,0,.2-.1.2a.35.35,0,0,1-.2.1l-.3-1.2h.1c.1,0,.1,0,.2-.1l.1-.1.1-.1h.1a.22.22,0,0,0,.2-.2l.1-.1H19l-.4.2-.5-.2.1-.3h-.3v-.5h-.1v.1c-.2,0-.2.1-.2.1l-.1.1h-.4l-.2.2a.1.1,0,0,0,.1-.1l.1-.1h.4a.35.35,0,0,1,.2-.1v.2h-.3l.1.3h.1l-.7.8-.5.2h.8l-.2.9h-.1a.31.31,0,0,1-.2-.1c0-.1-.1-.1-.1-.2h-.2l-.3-.4v-.5h-.4V19H16v.6h-.3l.2.4h.2Zm3.3-.7.2.3h-.2Zm-.1,0v.3h-.2Zm-.9.6h-.5v-1c.1,0,.2,0,.2-.1Zm0-1.8-.3.1L18,18Zm-.4.2-.1-.3Zm-.2-.3v.3h-.1Zm-.5.6.3-.4-.1.3Zm.3.4.1-.1h.1v1h-.5Zm-1.3.3.2.3h-.4Z"/><path class="cls-2" d="M29.4,5.8a.31.31,0,0,0,.1-.2v.1h.1c.1,0,.1-.1.1-.2s0-.1-.1-.1h-.1c-.1.1-.1.1,0,.2-.1,0-.1,0-.1.2h0c-.1-.1-.1,0,0,0Z"/><path class="cls-2" d="M28.2,20.4c-.1.2-.1.5-.3.5V21a.42.42,0,0,0,.3-.6c.1-.1.2-.2.2-.3V20h-.1A.76.76,0,0,1,28.2,20.4Z"/><path class="cls-2" d="M33.3,21.4l-.6-.2-.4.8-.8-.2-.5.6-.6-.2-.5.9-.7-.2-.5.8-.3-.1v.3l.4.2.6-.7.7.1.5-.8.6.2.5-.8.8.2.4-.8.5.2v-.1C33.3,21.6,33.3,21.5,33.3,21.4Z"/><path class="cls-2" d="M28.4,15.5h.1a.9.9,0,0,0-.1-.5c0-.1-.1-.2-.1-.3v-.2a.1.1,0,0,0-.1-.1c-.1,0-.1,0-.1.1v.3c0,.2.1.4,0,.5v.2h.1a.1.1,0,0,1,.1-.1C28.4,15.3,28.4,15.3,28.4,15.5Z"/><path class="cls-2" d="M34,21.7c-.1,0-.1.1-.2.1h-.1V22h-.1v.1a.1.1,0,0,1-.1.1h-.1v.1a.1.1,0,0,1-.1.1h-.1v.1a.1.1,0,0,1-.1.1v-.1H33v.1a.1.1,0,0,1-.1.1h-.1v.2h-.1V23h.1a.35.35,0,0,1-.1.2l.3-.3v.2h.1A8.31,8.31,0,0,1,31.6,25l-.1.1-.1.1-.1.1c-.2.2-.4.3-.6.5.1-.1.4-.5,0-.2h-.1v-.1a.35.35,0,0,0,.2.1c.2-.1.3-.5,0-.2.2-.2.2-.5,0-.2.1-.1.2-.3,0-.2.1-.1.2-.3,0-.1.1-.1.2-.2,0-.1.1-.1.1-.2,0-.1.1-.1.1-.1,0-.1.1,0,.1-.1,0-.1.1-.1.1-.1,0-.1.1-.1,0-.1,0-.1v0c-.1,0-.1,0,0,.1-.1,0-.1,0,0,.1-.1,0-.1.1,0,.1-.1,0-.1.1,0,.1-.1,0-.1.1,0,.1-.2-.1-.1.1,0,.1-.2-.1-.1.1,0,.1-.3,0-.1.1,0,.2-.3-.1-.2.1,0,.2-.1,0-.1-.1-.2-.1s-.1-.3-.1-.4a1.68,1.68,0,0,1,.2-1.1v-.2l.2-.1c.2-.1.3-.2.4-.2a4.33,4.33,0,0,1,1.2-.5,2.8,2.8,0,0,0,1-.5.37.37,0,0,1,.1-.3l-.4-.1-.4.8-.8-.2-.5.8-.6-.2-.5.8V24l-.7-.1-.5.8-.5-.2v.4h.2c-.1,0-.1,0,0,.1-.1,0-.1,0,0,.1-.2,0-.1.1,0,.1-.2,0-.1.1,0,.1-.2-.1-.2.1,0,.2-.3-.1-.1.1,0,.2-.3-.1-.2.1,0,.2-.4-.1-.2.1,0,.3-.4-.2-.2.1,0,.3-.5-.3-.3.2,0,.3.3-.1.5-.7,0-.3.2-.2.4-.6,0-.3.2-.2.3-.4,0-.3.2-.1.3-.3,0-.2.1-.1.2-.3,0-.2.2-.1.2-.2,0-.2.1-.1.1-.2,0-.1.1,0,.1-.2,0-.1.1-.1.1-.1,0-.1.1-.1.1-.1,0-.1a4.88,4.88,0,0,1,.7-.3v.1c-.1,0,0,0,0,.1s-.1,0,0,.1c-.1,0-.1,0,0,.1-.1,0-.1.1,0,.1-.1,0-.1.1,0,.1-.1,0-.1.1,0,.1-.2,0-.1.1,0,.1-.2-.1-.1.1,0,.2-.3-.1-.2.1,0,.3-.4-.2-.2.1,0,.3-.4-.3-.2.1,0,.3-.5-.2-.1.1,0,.3-.4.2-.8.3-1.3.5.2-.1.6-.6,0-.3-.7-.3-.2.2,0,.3-.3.1-.5.1-.9.2.2-.1.6-.6,0-.3-.7-.3-.2.2,0,.3-.1,0-.3.1-.4.1s0-.1-.1-.2,0-.1-.1-.1l-.1-.1c.2-.2.2-.4-.2-.2.3-.3.5-.6,0-.3a.75.75,0,0,0,.3-.3l.1-.1a.37.37,0,0,1,.3-.1.35.35,0,0,0,.2.1c-.4-.1-.2.1,0,.3-.4-.3-.3.1,0,.3-.5-.3-.3.2,0,.3.3-.1.5-.6,0-.3.3-.2.4-.6,0-.3.2-.2.3-.4,0-.3.2-.1.3-.3.1-.2.1,0,.1-.1.2-.2s0-.4,0-.4a3,3,0,0,1,.2-1.8,3.8,3.8,0,0,0,.2-2.1c-.2-.7.1,0,.1-.1a2.25,2.25,0,0,0,.1-.7,3.33,3.33,0,0,0,.3-.6.35.35,0,0,1,.1-.2v-.1h-.1a.44.44,0,0,0-.1.3.76.76,0,0,1-.2.4v-.5c.1-.1.1-.3.2-.4a.37.37,0,0,0,.1-.3v-.1h-.1a.44.44,0,0,0-.1.3c0,.2,0,.1-.1.1v-.3c.1-.1.1-.3.2-.4a.1.1,0,0,1,.1-.1h-.1a.1.1,0,0,1-.1.1c0,.1-.1.1-.1.2v-.1h-.1v.4a.37.37,0,0,0-.1.3v-.4c0-.1.1-.1.1-.3a2.07,2.07,0,0,0,.2-.6v-.1h-.1a3.33,3.33,0,0,0-.3.6v.9a.1.1,0,0,0,.1-.1V20a.35.35,0,0,1-.1.2v.1a5.94,5.94,0,0,1-.1,1.1h-.1V21h-.1v.4a4.16,4.16,0,0,1-.2,2.2,2.92,2.92,0,0,0-.2.9,3.33,3.33,0,0,0,0,1v.3a.52.52,0,0,1-.4.2c-.1,0-.2.1-.4.1s-.2.1-.2.3-.2.3-.4.3-.1.1-.2.1-.1.1-.2.1h0a.1.1,0,0,0,0-.2v-.1l.1-.1h-.1a.1.1,0,0,0-.1.1l-.1.1a.35.35,0,0,0,.1-.2v-.1h-.1v-.1h.1a4.35,4.35,0,0,1,.6-.7l.2-.2c.1-.1.1-.3.1-.6a8.64,8.64,0,0,0-.1-1.5,6.08,6.08,0,0,1-.1-1.9h.1a9.85,9.85,0,0,0,.1-2.1v-1l.3-.6v.9a21,21,0,0,1-.1,2.8v.1h.1a21,21,0,0,0,.1-2.8V17.6a.1.1,0,0,1,.1-.1v-.2c0-.1.1-.1.1-.2v1c0,1.2,0,2.7-.1,3.5a.1.1,0,1,0,.2,0c.1-.8.1-2.3.1-3.5v-.3a1.42,1.42,0,0,1,.2-.6c.1-.2.1-.3.2-.4h-.1c0,.1-.1.3-.1.4s-.1.2-.1.3V17c.1-.2.1-.4.3-.6v-.1c.5-1.1.9-2,1-2.2h.1c.2,0,.2,0,.3-.1a.35.35,0,0,0,.1-.2.22.22,0,0,0,.2-.2v-.1c.1,0,.1-.1.1-.2v-.2a.31.31,0,0,0,.1-.2.22.22,0,0,0-.2-.2l1-2.1v.5a.1.1,0,0,0,.1.1c.1,0,.1,0,.1-.1v-.8l.3-.5c0,.2.1.3.1.4a1.49,1.49,0,0,1,.1.6v.1c.1-.1,0-.3,0-.7,0-.2-.1-.4-.1-.6l.2-.5c0,.2.1.4.1.7-.1-.4-.1-.2-.1.1a.1.1,0,0,0,.1.1c.1,0,.1,0,.1-.1,0-.3-.1-.5-.1-.8a1.7,1.7,0,0,1-.1-.7V7.9a1.4,1.4,0,0,1,.3.9,1.27,1.27,0,0,0,.1.6h.1V9.3a1.27,1.27,0,0,1-.1-.6,1.49,1.49,0,0,0-.3-1l.1-.1h.1a2.07,2.07,0,0,1,.6,1,2.18,2.18,0,0,0,.1.6h.1V9.1c-.1-.1-.1-.2-.2-.4a2.38,2.38,0,0,0-.6-1.1h.2a3.74,3.74,0,0,1,.7.6,1.55,1.55,0,0,1,.3.6V9c0,.1,0,.1.1.2s.1.2.1.4h.1v.5a1.17,1.17,0,0,0-.2.7.1.1,0,1,0,.2,0c0-.2,0-.3.1-.4v.5a5.63,5.63,0,0,1,0,1.3,17,17,0,0,0-.1,3.3v.7a4.87,4.87,0,0,0,.1,1.2,5.14,5.14,0,0,1,.1,1.7v1.1h-.1c.1-.1,0-.2,0-.3v-.2a.1.1,0,0,0-.1-.1h-.1a.78.78,0,0,1-.2.5v.1a6.89,6.89,0,0,1-.8.3c-.3.1-.6.3-.9.4s-.6.4-1,.6l-.6.3a4.48,4.48,0,0,0,.1-1.2.1.1,0,0,0-.1-.1h-.1c0,.2-.1.3-.1.4s-.1.1-.1.2-.1.3,0,.4v.2a.1.1,0,0,0,.1.1c.1,0,.1,0,.1-.1v-.6c0-.1.1-.1.1-.2v-.1c0,.3-.1.7-.1.8v.1h.1a1.8,1.8,0,0,1-.9.4c.1-.1.1-.3.2-.3v-.1a.1.1,0,0,0-.1-.1c-.1,0-.1.1-.3.5-.1.2-.1.3-.2.4H28c0-.1.1-.2.1-.3v.2l.2.1.6-.7.7.1.5-.8.6.2.5-.8.8.2.4-.8.6.3v-.8a.1.1,0,0,0,.1.1c.1,0,.1,0,.1-.1a.76.76,0,0,0-.1-.4V17.7a.9.9,0,0,0-.1-.5c0-.2-.1-.4-.1-.6a.37.37,0,0,0-.1-.3v0h.1v-.1a.37.37,0,0,0-.1-.3c0-.1-.1-.2-.1-.4v-.6h.1a1.51,1.51,0,0,0-.2-.8v-.7a.1.1,0,0,0,.1-.1v-.6a.76.76,0,0,0-.1-.4,2.22,2.22,0,0,1,.1-.9v-.5a4.33,4.33,0,0,1-.1-.5V10c0-.4-.1-.8-.1-1.2V8.6c0,.1.1.1.1.2a.1.1,0,0,0,.1-.1.68.68,0,0,0-.3-.5.6.6,0,0,1-.1-.4,1.33,1.33,0,0,0-.3-.7l-.3-.3c.2.1.5.2.6.4h.1V7.1c-.1-.3-.5-.5-.8-.6h-.1c.2-.1.8.2,1,.5h.1V6.9a1.61,1.61,0,0,0-1.3-.6h-.4V6.2H31l.1-.3.1.1.2-.2c0,.2.2.3.4.4h.1V6.1a1.08,1.08,0,0,1,.2-.8,1.7,1.7,0,0,0,.1-.7,1.38,1.38,0,0,0-.3-.4c.1-.1.1-.1.1-.2s.1-.1.1-.2a.35.35,0,0,0,.1-.2.35.35,0,0,0,.2-.1V3.3c.1,0,.1-.2.1-.3s0-.1-.1-.2l.1.1h.1V2.8C33,4.1,33.1,4,33,4V3.9c.5-.8.7-1.2.5-1.8V2h-.1c-.6.2-.8.7-1.1,1.6h-.1l-.1.2v.1h.1c-.1.1-.2.2-.2.3l-.1.1a.37.37,0,0,0,.1.3c0,.1-.1.1-.1.2l-.1.1V5a.35.35,0,0,0-.1.2.6.6,0,0,0-.6.3,1.35,1.35,0,0,0,0-.9c.1,0,.2-.1.3-.2a.66.66,0,0,0,.1-.6c0-.1,0-.1-.1-.1.3-.3.8-.7.8-.7s.1-.1.1-.2a.37.37,0,0,0-.1-.3.31.31,0,0,0-.2-.1c-.1,0-.2,0-.2.1l-.8,1h-.1a4.93,4.93,0,0,0,.4-.9V2.4a.22.22,0,0,0-.2-.2h-.3c-.1,0-.1.1-.2.2s-.3.9-.4,1.3c-.1-.1-.4-.1-.6-.1-.5,0-1.4.3-1.5.8v.2a.22.22,0,0,1-.2.2c0,.1-.1.1-.1.2s0,.2,0,.3l-.1.1c-.1.2-.3.4-.3.6a.35.35,0,0,0,.1.2v.4l.1.1c0,.1-.1.2,0,.3s.1.2.3.2h.5a2.27,2.27,0,0,1,.1.4c-.1,0-.1,0-.2.1a2.85,2.85,0,0,0-.8.4h-.3a2,2,0,0,0-.7.1,1.58,1.58,0,0,0-.7.7,7.26,7.26,0,0,1-.5.9,5.58,5.58,0,0,0-.5.8c-.1.1-.1.2-.2.3-.2.3-.4.6-.3.9v.1h-10c-.1,0-.2-.1-.3-.1s-.3-.1-.4-.2a.37.37,0,0,0-.3-.1.37.37,0,0,1-.3-.1H11.5c-.2,0-.4-.1-.8-.1h-.6a3.78,3.78,0,0,1-.6-1.6.35.35,0,0,0-.1-.2V9.4a3.7,3.7,0,0,0-.9-1.6A2.19,2.19,0,0,0,8,7.5c-.2-.1-.4-.1-.6-.3,0-.1.1-.2.1-.4.1,0,.2.1.3.1s.3-.1.3-.2V6.5c0-.1.1-.1.1-.2h.1V6a.1.1,0,0,0,.1-.1.37.37,0,0,0-.1-.3.19.19,0,0,1,0-.3c.1-.1.1-.4.1-.6V4.6a.76.76,0,0,0,.2-.4c0-.1-.1-.3-.5-.3a.76.76,0,0,0-.5-.2H7.3a1.21,1.21,0,0,0-1-.1c-.3.1-.4.4-.6.7A2.33,2.33,0,0,0,5.4,6a.73.73,0,0,0-.2.6.27.27,0,0,0,.3.3h.1c.1,0,.2,0,.4-.2v.1a3.7,3.7,0,0,1-1.1.5L2.5,2.6a.19.19,0,0,0,0-.3c0-.1-.1-.1-.2-.1a.37.37,0,0,0-.3.1.35.35,0,0,0-.2.1c-.1.1,0,.2,0,.3s.1.1.2.1-.1.2-.2.3C1.2,4,0,5.8,0,6.9c0,.4.2.7.7,1.3.1.1.1.2.2.3A3,3,0,0,1,.6,9.7a6,6,0,0,0-.4,2.2,4.35,4.35,0,0,0,1.3,1.8,4.37,4.37,0,0,1,.7.8c.2.7.3,1,.5,1s.4-.3.5-.5.1-.2.1-.3v-.1c0-.1,0-.1-.1-.2a2.49,2.49,0,0,1-.5-.7A7.58,7.58,0,0,1,3,12.1c0-.1.1-.2.1-.3.3,0,.5-.1.7-.1a6.89,6.89,0,0,0,.8-.3,1.62,1.62,0,0,0,.5.9,3.38,3.38,0,0,1-.4,1A8.8,8.8,0,0,0,4.1,15,12.79,12.79,0,0,0,4,17.1a10.93,10.93,0,0,1-.1,2,5.85,5.85,0,0,0-.2,1.3v.4c0,.9.1,3,.1,3.5v.2c-.1-.1-.1,0,0,.1-.2-.1-.1,0,0,.1-.1-.1-.1,0-.1,0l-.1-.1c.1,0,.2-.1,0-.1.1,0,.2-.1,0-.1.1,0,.2-.1,0-.1.1,0,.1-.1,0-.1.1,0,.1-.1,0-.1h0c-.1,0-.1,0,0,.1-.1-.1-.1,0,0,.1-.1-.1-.1,0,0,.1-.1-.1-.1,0,0,.1-.1-.1-.1,0-.1,0l-.1-.1c.1,0,.2-.1,0-.1.1,0,.2-.1,0-.1.1,0,.2-.1,0-.1.1,0,.1-.1,0-.1.1,0,.1,0,0-.1h0c-.1,0-.1,0,0,.1-.1-.1-.1,0,0,.1-.1-.1-.1,0,0,.1-.1-.1-.1,0,0,.1H3.3l-.1-.1c.1,0,.1-.1,0-.1.1,0,.2,0,0-.1.1,0,.1,0,0-.1.1,0,.1,0,0-.1h0c-.1-.1-.1,0,0,0-.1,0-.1,0,0,.1-.1-.1-.1,0,0,.1-.1-.1-.1,0,0,.1a.1.1,0,0,1-.1-.1L3,23.9c.1,0,.1,0,0-.1H3c-.1-.1-.1,0,0,0-.1-.1-.1,0,0,0-.1-.1-.1,0,0,0-.1-.1-.1,0,0,0l-.1-.1a.1.1,0,0,0-.1-.1c-.1,0,.1,0,0-.1h0c-.1-.1-.1,0,0,0-.1-.1-.1,0,0,0s-.1-.1-.1-.2v-.2l-.1.1a.1.1,0,0,0-.1-.1v-.2l-.1.1v-.2l-.1.1v-.2H2.2v-.2H2.1v-.2H2v-.2a.1.1,0,0,0-.1-.1v-.1a.1.1,0,0,0-.1-.1v-.1a.1.1,0,0,0-.1-.1c-.1-.1-.1-.2-.2-.2v.1l.1.1a.1.1,0,0,0,.1.1c.1,0,0,.1.1.1a.1.1,0,0,0,.1.1A.1.1,0,0,0,2,22a.1.1,0,0,0,.1.1v.1h.1v.2h.1v.1l-.1.1h.1v.1l-.1.1h.2v.1l-.2.1h.2l.1.1c0-.1-.1-.1,0,0,0-.1-.1-.1,0,0h0l.1.1v.1c0-.1-.1-.1-.1,0,0-.1-.1-.1,0,0,0-.1-.1-.1,0,0h0c0,.1,0,.1.1,0,0,.1,0,.1.1,0,.3.7.3.7.4.7v.1c0-.1-.1-.1-.1,0,0-.1-.1-.1,0,0,0-.1-.1-.1-.1,0,0-.1-.1-.1,0,0,0-.1-.1,0,0,0s0,.1.1,0c0,.1,0,.1.1,0,0,.2,0,.1.1,0,0,.1,0,.1.1,0l.1.1v.1c-.1-.1-.2-.1-.1,0,0-.1-.1-.1-.1,0,0-.1-.1-.1-.1,0,0-.1-.1-.1-.1,0H3c0-.1-.1,0,0,0s0,.1.1,0c0,.1,0,.1.1,0,0,.1.1.1.1,0,0,.1.1.1.1,0,0,.1,0,.1.1,0a.1.1,0,0,0,.1.1v.1c-.1-.1-.2-.1-.1,0-.1-.1-.2-.1-.1,0-.1-.1-.1-.1-.1,0-.1-.1-.1-.1-.1,0h0c-.1-.1-.1,0,0,0h0c0,.1.1.1.1,0,0,.1.1.1.1,0,0,.2.1.1.1,0,0,.2.1.1.1,0,0,.2.1.1.1,0,0,.1.1.1.1.2s-.1,0,0,.1c-.1-.1-.2-.1-.1,0-.1-.1-.2-.1-.1,0-.1-.1-.2-.1-.1,0-.1-.1-.1-.1-.1,0,0-.1-.1-.1-.1,0-.1-.1-.1,0,0,0h0c0,.1.1,0,.1,0s.1.1.1,0c0,.1.1.1.1,0,0,.2.1.1.1,0,0,.2.1.1.1,0,0,.2.1.1.1,0l.1.1v.2c-.1,0-.2,0,0,.1-.1-.1-.3-.1-.1.1-.1-.1-.2-.1-.1,0-.1-.1-.2-.1-.1,0-.1-.1-.2-.1-.1,0-.1-.1-.1,0-.1,0h0c-.1-.1-.1,0,0,0h0c0,.1.1,0,0,0s.1,0,.1,0,.1.1.1,0c0,.2.1.1.1,0,0,.2.1.1.1,0,0,.2.1.1.1-.1,0,.2.1.2.1.1,0,.1.1.1.2.2a.1.1,0,0,0,.1.1c-.2-.1-.4-.1-.2.1-.2-.1-.4-.1-.2.1-.1-.1-.2-.1-.1,0-.1-.1-.2-.1-.1,0-.1-.1-.2-.1-.1,0-.1-.1-.1,0-.1,0s-.1-.1-.1,0c-.1-.1-.1,0,0,0h0c0,.1.1,0,.1,0s.1.1.1,0c0,.1.1.1.1,0,0,.2.1.1.1,0,0,.2.1.1.1,0,0,.2.1.1.1-.1,0,.3.1.1.2-.1-.1.4.1.1.1-.1,0,.4.1.1.1,0l.2.2c-.1,0-.2,0,0,.2,0,.5.1.1.2,0H5a.1.1,0,0,1-.1.1v.2s0,.1.2.2c-.3-.1-.6,0-.2.2-.2-.1-.5,0-.2.1-.2-.1-.4,0-.1.1-.1-.1-.3,0-.1.1-.1-.1-.3,0-.1.1-.1-.1-.2,0-.1.1-.1,0-.2,0-.1.1-.1-.1-.1,0-.1,0H3.9v.1h.2c0,.1.1.1.1,0,0,.1.1.1.1,0,0,.1.1,0,.1-.1.1.1.1.1.1-.1,0,.2.1.1.1-.1,0,.2.1.1.1-.1.1.3.2.1.1-.1.1.3.2.1.2-.1,0,.4.2.1.2-.2,0,.3.1.3.1.2s.2.1.3.1a.35.35,0,0,0,.2.1c-.3-.1-.7,0-.2.2-.2-.1-.5,0-.2.2-.2-.1-.4,0-.1.1-.1-.1-.4,0-.1.1-.2-.1-.3,0-.1.1-.1-.1-.2,0-.1.1-.1,0-.2,0-.1.1-.1-.1-.1,0-.1.1H4.6V28h.1c0,.1.1,0,.1-.1,0,.1.1.1.1-.1,0,.1.1.1.1-.1,0,.1.1,0,.1-.1-.1.2-.1.1-.1-.1.1.2.1.1.1-.1.1.3.2.1.1-.1.1.3.2.1.2-.1.1.3.2.1.2-.2,0,.4.2.1.2-.2,0,.6.3.1.2-.2-.1,0-.2-.1-.3-.1a.35.35,0,0,0,.2.1c.1.6.2.1.2-.1.1.1.2.1.4.2-.2,0-.5.1.1.2.2.6.3.1.2-.1.3.2.5.2.6.3-.3,0-.5.1,0,.2a.31.31,0,0,1,.1.2.1.1,0,0,0-.1.1.37.37,0,0,0-.1-.3c-.3-.1-.8.2-.2.2-.4,0-.7.2-.2.3-.3,0-.5.1-.2.2-.2,0-.4.1-.1.2-.2,0-.4.1-.1.1-.2,0-.3.1-.1.1-.1,0-.2,0-.1.1-.1,0-.2,0-.1.1-.2,0-.1,0-.1.1s-.1,0-.1.1-.1,0-.1.1V29l.1-.1a.1.1,0,0,0,.1-.1c.1.1.1.1,0-.1.1.1.1.1.1-.1.1.1.1,0,.1-.1.1.1.2,0,.1-.1.1.2.2,0,.1-.1.1.3.2,0,.1-.1.1.3.2.1.1-.2.2.3.2,0,.2-.2.2.2.3.2.3.2a1.76,1.76,0,0,1-.4.5l-.6.9a.85.85,0,0,0,0,.7,1.25,1.25,0,0,0,1.1.6c.2,0,.3,0,.4-.1a1.28,1.28,0,0,0,.5-.7l.2.2a2.93,2.93,0,0,0,1.6.7.67.67,0,0,0,.7-.4c.1-.1,0-.2,0-.5v-.4q.15,0,0-.3c.3.3.3-.1.1-.4.3.5.4.1.2-.4.2.4.3.2.3,0h.3c-.1.1,0,.2.4.1-.5.1-.9.4-.2.4-.4.1-.7.2-.2.3-.3,0-.6.2-.1.2-.2,0-.5.2-.1.2-.2,0-.4.1-.1.2-.2,0-.3.1-.1.2-.1,0-.3.1-.1.1-.2,0-.2.1-.1.1-.2,0-.2.1-.1.1-.1,0-.2.1-.1.1v.1l.1-.1c.1.1.1,0,.1-.1.1.1.1.1.1-.1.1.1.2.1.1-.1.1.2.2,0,.1-.1.2.2.2,0,.1-.2.2.2.2,0,.1-.2.2.3.2,0,.1-.2.2.4.3,0,.2-.2.3.4.3,0,.2-.3.3.6.4.1.2-.4.3.6.4.3.3-.1h.1c.1.1.1.1.1,0h.1c-.2.1-.3.2.3.3-.5,0-.9.3-.3.4-.4,0-.7.2-.2.3-.3,0-.6.1-.2.2-.2,0-.5.1-.1.2-.2,0-.4.1-.1.2-.2,0-.3.1-.1.2-.1,0-.3.1-.1.1-.2,0-.2.1-.1.1-.2,0-.2,0-.1.1-.1,0-.2.1-.1.1v.1l.1-.1c.1.1.1,0,.1-.1.1.1.1.1.1-.1.1.1.2.1.1-.1.1.2.2,0,.1-.1.1.2.2,0,.1-.2.1.3.2,0,.1-.2.2.3.2,0,.1-.2.2.4.3.1.2-.2.3.4.3,0,.2-.3.2.6.4.1.3-.4.2.7.4.2.3-.1h.1c.1.2.2.2.2.1s.2,0,.2.1c-.3.1-.5.3.1.3-.4.1-.8.4-.2.4-.3,0-.7.2-.2.3-.3,0-.5.2-.1.2-.2,0-.5.1-.1.2-.2,0-.4.1-.1.2-.2,0-.3.1-.1.2-.1,0-.3.1-.1.1-.2,0-.2.1-.1.1-.2,0-.2.1-.1.1a.1.1,0,0,0-.1.1v.1L13,31c.1.1.1,0,.1-.1.1.1.1.1.1-.1.1.1.2.1.1-.1.1.2.2,0,.1-.1.1.1.2,0,.1-.2.2.2.2,0,.1-.2.2.3.2,0,.1-.2.2.3.3,0,.1-.2.3.4.3,0,.2-.3.3.5.3.1.2-.4.3.6.4.2.3-.2h.1c.1.2.2.2.2.1a.44.44,0,0,0,.3.1c-.4,0-.9.2-.2.3-.4,0-.8.2-.2.3-.3,0-.6.1-.2.3-.3,0-.5.1-.1.2-.2,0-.5.1-.1.1-.2,0-.4.1-.1.1-.2,0-.3.1-.1.1-.1,0-.3,0-.1.1-.2,0-.2,0-.1.1-.1,0-.1,0-.1.1a.1.1,0,0,0-.1.1V31l.1-.1c0,.1.1,0,.1-.1.1.1.1.1.1-.1.1.1.1.1.1-.1.1.2.1,0,.1-.1.1.1.2,0,.1-.1.1.2.2,0,.1-.1.2.3.2,0,.1-.2.2.3.3.1.2-.2.2.3.3,0,.2-.3.2.5.3.1.2-.3.2.7.4.1.2-.3.2.5.3.3.3.1a.35.35,0,0,1,.2.1c-.2,0-.4.1.1.2.2.6.3.2.2-.1l.3.3c-.2,0-.5,0,0,.2.2.5.2.2.2,0l.3.3c-.2,0-.5,0-.1.2.1.5.2.2.2,0,.1.1.2.2.2.3-.2,0-.5,0-.1.2.1.4.2.2.2,0a.37.37,0,0,1,.1.3v.2l.1-.1a.49.49,0,0,0,.1-.3c-.1-.1-.1-.2-.2-.3.2,0,.6-.1.1-.2-.2-.4-.2-.1-.2.1l-.3-.3c.2,0,.7-.2.1-.2-.3-.5-.3-.1-.2.1l-.4-.4a.37.37,0,0,0,.3-.1H17a.37.37,0,0,0,.1.3c.3,0,.7-.3.1-.2.1,0,.1,0,.2-.1h.5v.2c-.2-.2-.2,0-.1.2-.2-.3-.2,0-.1.2-.2-.4-.2,0-.1.2.2,0,.6-.2.1-.2.3,0,.5-.2.1-.2.1,0,.2,0,.2-.1a.35.35,0,0,0,.2.1c-.4,0-.1.2.1.2-.5,0-.1.2.1.2.1-.2.1-.6-.1-.2.1-.2,0-.5-.1-.2.1-.2.1-.4-.1-.2,0-.1.1-.1,0-.2h.4c.1,0,.1,0,.2.1-.6-.1-.1.2.1.2a.37.37,0,0,0,.1-.3h.2a1,1,0,0,1,.3.1c-.2.1-.3.3-.5.4.1-.2.2-.7-.1-.2-.7,0-.1.2.1.2-.1.1-.2.3-.3.4.1-.2.1-.5-.2-.1-.6.1-.1.2.1.2-.1.1-.1.2-.2.3s0,.3.1.3l.1.1v-.2a.37.37,0,0,1,.1-.3c0,.2.1.3.2-.1.4-.2.2-.2,0-.2.1-.1.1-.2.2-.3,0,.2.1.5.2,0,.5-.2.2-.2,0-.2l.3-.3c0,.2,0,.5.2,0,.5-.2.3-.2,0-.2l.3-.3c0,.3,0,.6.2,0,.6-.2.3-.2,0-.2h.1c.1,0,.2-.1.3-.1,0,.3,0,.5.3,0,.4-.1.4-.1.3-.2h.1c0,.2.1.2.3-.1-.1.3-.1.9.2.2-.1.4,0,.9.2.4-.1.3-.1.7.2.3-.2.3-.1.5.1.2-.1.2-.1.5.1.2-.1.2,0,.4.1.2-.1.2,0,.3.1.2-.1.1-.1.3.1.1-.1.2,0,.2.1.1-.1.2,0,.2.1.1,0,.1,0,.2.1.1l.1.1v-.1c.1,0,0-.1-.1-.1.1,0,.1-.1-.1-.1.1,0,.2-.1-.1-.1.2,0,.1-.1-.1-.1.2-.1.1-.2-.1-.2.3,0,.1-.2-.1-.2.4,0,.1-.2-.1-.2.4-.1.2-.2-.1-.2.5-.1.1-.3-.2-.3.6,0,.2-.3-.2-.4.7,0,.3-.3,0-.3.1,0,.2-.1.3-.1,0,.2.1.2.3-.1-.1.4,0,.9.3.2-.1.5,0,1,.3.4-.1.4-.1.7.2.3-.1.3,0,.6.2.2-.1.2-.1.5.1.2-.1.2,0,.4.1.2-.1.2,0,.3.1.2-.1.1,0,.3.1.1-.1.2,0,.2.1.1,0,.2,0,.2.1.1,0,.1,0,.2.1.1a.1.1,0,0,0,.1.1v-.1c.1,0,0-.1-.1-.1.1,0,.1-.1-.1-.1.1,0,.2-.1-.1-.1.2-.1.1-.2-.1-.1.2-.1.1-.2-.1-.2.3-.1.1-.2-.1-.2.4-.1.1-.2-.1-.2.4-.1.2-.3-.2-.2.5-.2.1-.3-.2-.3.7,0,.2-.3-.3-.4.6,0,.4-.2.2-.3h.1c0,.1.1.1.2,0h.1c-.1.4,0,.7.3.1-.1.5-.1,1,.2.4-.1.4-.1.7.2.3-.2.3-.1.6.2.2-.1.2-.1.5.1.2-.1.2-.1.4.1.2-.1.2-.1.3.1.2-.1.1-.1.3.1.1-.1.2,0,.2.1.1-.1.2,0,.2.1.1,0,.1,0,.2.1.1a.1.1,0,0,0,.1.1v-.1c.1,0,0-.1-.1-.1a.91.91,0,0,0,.7.3,2.93,2.93,0,0,0,1.6-.7l.1-.1h.1a1.28,1.28,0,0,0,.5.7.6.6,0,0,0,.4.1,1.52,1.52,0,0,0,1.1-.6.85.85,0,0,0,0-.7l-.6-.9-.6-.9a.59.59,0,0,0-.5-.2c.2-.1,0-.1-.1-.2a4.33,4.33,0,0,0,.5-.1c-.1.2-.1.7.2.1.5-.1.3-.2.1-.2.1,0,.3-.1.4-.1,0,.2,0,.6.2.1.4-.1.3-.2.2-.2.1,0,.2-.1.3-.1,0,.2.1.6.2,0,.1,0,.1-.1.2-.1h.1a.1.1,0,0,0,.1-.1h.1c0,.1.1.1.1,0l.1-.1c0,.2.2.4.2,0,0,.3.2.6.2.2,0,.2.1.4.2.1,0,.2.1.4.1.1,0,.1.1.3.1.1,0,.2.1.3.1.1,0,.1,0,.2.1.1,0,.1,0,.2.1.1,0,.1,0,.1.1,0,0,.1,0,.1.1,0,0,.1,0,.1.1,0h.1v-.1s0-.1-.1,0,0-.1-.1,0c.1,0,.1-.1-.1,0,.1-.1,0-.1-.1-.1.1-.1,0-.1-.1-.1.2-.1,0-.2-.1-.1.2-.1,0-.2-.1-.1.2-.1,0-.2-.1-.1.3-.2,0-.2-.2-.1.4-.2.1-.2-.2-.2.4-.1.2-.2,0-.2l.1-.1v-.2a.1.1,0,0,0,.1-.1c0,.2.2.4.2,0,.2-.1.2-.2.1-.2.1,0,.1-.1.2-.1s.1.3.1-.1l.1-.1c.1,0,.1-.1.2-.1s.1.2.1-.1c0,.2.2.3.1.1,0,.1.1.2.1.1,0,.1.1.2.1,0,0,.1.1.2.1,0,0,.1.1.1.1,0,0,.1,0,.1.1,0s0-.1,0,0c.1-.1,0-.1-.1,0,.1-.1,0-.1-.1,0,.1-.1,0-.1-.1,0,.1-.1,0-.1-.1,0,.1-.1,0-.1-.1-.1.2-.1,0-.1-.1-.1l.1-.1.1-.1c0,.1.1.1.1-.1,0,.1.1.2.1,0,0,.1.1.2.1,0,0,.1.1.2.1,0,0,.1.1.1.1,0,0,.1.1.1.1,0h-.1c.1-.1,0-.1-.1,0,.1-.1,0-.1-.1,0,.1-.1,0-.1-.1,0,.1-.1,0-.1-.1,0,.1-.2,0-.1-.1,0a.1.1,0,0,1,.1-.1l.1-.1c0,.1.1.1.1-.1,0,.1.1.2.1,0,0,.1.1.2.1,0,0,.1.1.1.1,0,0,.1.1.1.1,0s0-.1-.1,0c.1-.1,0-.1-.1,0,.1-.1,0-.1-.1,0,.1-.1,0-.1-.1,0l.1-.1a.1.1,0,0,0,.1-.1c0,.1.1.1.1,0,0,.1.1.1.1,0,0,.1.1.1.1,0,0,.1.1.1.1,0s0-.1-.1,0c.1-.1,0-.1-.1,0,.1-.1,0-.1-.1,0,.1-.1,0-.1,0-.1a.1.1,0,0,1,.1-.1c.1,0,.1,0,0-.1,0,.1.1.1.1,0,0,.1.1.1.1,0,0,.1.1.1.1,0s0-.1-.1,0c0-.1,0-.1-.1,0v-.2c0,.1.1.1,0,0,0,.1.1.1,0,0,.1-.1,0-.1,0,0v-.1l.1-.1c0-.1.1-.1.1-.2h.2l-.1-.1a.1.1,0,0,1,.1-.1h0a.1.1,0,0,1,.1-.1h.1a.1.1,0,0,1,.1-.1c.1,0,0-.1.1-.1s.1-.2.2-.3c.2-.3.3-.6.4-.6l-.5.1Zm-8.6,4.7Zm7.3-5.7c.1-.1.1-.2.2-.3v.2A.35.35,0,0,1,32.7,20.7Zm-5.9,6.8c.1,0,.3-.1.4-.1v.1a.35.35,0,0,0-.2.1C26.8,27.6,26.8,27.6,26.8,27.5Zm-.7-1Zm-.4.6a.75.75,0,0,1,.1.5c0,.2-.1.4-.3.4a.45.45,0,0,1-.5,0c-.2,0-.2-.1-.3-.1v-.2a1,1,0,0,1,.1-.4l.1-.2c0-.2.1-.3.1-.4h.1C25.4,26.9,25.6,26.9,25.7,27.1Zm-.3-1Zm.9-5.4h0v-.4h-.1v.3c0,.7.1,1.4.1,2.1a4.4,4.4,0,0,1,0,2l-.2.2a3.81,3.81,0,0,0-.5.6.14.14,0,0,0-.2,0c.2-.1.3-.3,0-.2.2-.1.2-.2,0-.2.1,0,.2-.2,0-.1.2-.1.1-.1,0-.1.1-.1.1-.1,0-.1.1-.1.1-.1,0-.1v0c-.1,0-.1,0,0,.1-.1,0-.1,0,0,.1-.1,0-.2,0,0,.1-.2-.1-.1.1,0,.1-.2,0-.2.1,0,.2-.3-.1-.2.1,0,.2-.4-.2-.2.1,0,.2-.3-.1-.3,0-.1.2-.2,0-.2.1-.1.2v.1c-.2,0-.5-.1-.7-.1.2-.2.2-.4-.2-.2.3-.2.4-.5,0-.3.2-.1.4-.4,0-.2.2-.1.3-.3,0-.2.2-.1.2-.3,0-.2.1-.1.2-.2,0-.1.2-.1.1-.2,0-.1.1-.1.1-.1,0-.1.1-.1.1-.2,0-.1v0c-.1,0-.1,0,0,.1-.1,0-.1,0,0,.1-.1,0-.2,0,0,.1-.3-.1-.3.1-.1.1-.2,0-.2.1,0,.2-.3-.1-.2.1,0,.2-.4-.2-.2.1,0,.2-.4-.2-.3.1,0,.3-.4-.1-.3,0-.2.2a1.7,1.7,0,0,0-.7.1c.1-.1,0-.2-.3-.1.3-.2.3-.5,0-.3.2-.1.3-.4,0-.2.2-.1.2-.4,0-.2.2-.1.2-.3,0-.2.1-.1.2-.2,0-.1.2-.1.1-.2,0-.1.1-.1.1-.1,0-.1.1-.1.1-.2,0-.1v0c-.1,0-.1.1,0,.1-.1,0-.1,0,0,.1-.1,0-.2,0,0,.1-.2-.1-.1.1,0,.1-.2,0-.2.1,0,.2-.3-.1-.2.1,0,.2-.4-.1-.2.1,0,.2-.4-.1-.3.2,0,.3-.3-.1-.3,0-.2.2-.2,0-.4.1-.6.1,0-.1,0-.2-.3,0,.3-.2.3-.5-.1-.3.2-.1.3-.5,0-.2.2-.1.2-.4,0-.2.1-.1.2-.3,0-.2A7.84,7.84,0,0,0,24,22.9c.2-.3,1-2,1.9-4v1.8c0,.1,0,.1.1.1a.1.1,0,0,0,.1-.1,5.1,5.1,0,0,0,0-1.8v-.7a.35.35,0,0,1,.1-.2v.7A18.16,18.16,0,0,1,26.3,20.7Zm-4.6,6c-.2.1-.4.1-.6.2.1-.2.1-.3-.2-.1.2-.1.2-.4-.1-.2.2-.1.2-.4,0-.2.1-.1.1-.3,0-.2a5.58,5.58,0,0,0,.8-.5l.1.1c-.3-.1-.2.1,0,.2-.4-.1-.2.2,0,.2-.4-.1-.3.2,0,.3C21.5,26.4,21.5,26.5,21.7,26.7Zm-.9.3a1.42,1.42,0,0,1-.6.2c0-.1,0-.1-.2,0,.2-.1.1-.3-.1-.2.1-.1.1-.2,0-.2.1-.1.1-.2,0-.1.1-.1.1-.2,0-.1a.1.1,0,0,1,.1-.1c.1,0,.2-.1.3-.1s.2-.1.3-.2a.35.35,0,0,0,.2.1c-.3-.1-.2.1,0,.2-.4-.1-.2.2.1.2C20.6,26.7,20.6,26.9,20.8,27Zm-.9.3c-.2.1-.4.1-.6.2h-.1c.1-.1,0-.1,0-.1s0-.1,0-.1v-.1c-.1,0,0,.1,0,.1s-.1,0,0,.1c-.1,0-.1.1,0,.1h-.1a3.75,3.75,0,0,1-1.1.1h-.2a4.87,4.87,0,0,1-1.2-.1h-.1c.2,0,.1-.1,0-.1.1,0,.1-.1,0-.1.1,0,.1-.1,0-.1v0c-.1,0-.1,0,0,.1-.1,0-.1,0,0,.1-.1-.1-.1,0,0,.1-.1-.1-.1,0-.1,0a1.85,1.85,0,0,1-.7-.2c.1-.1.2-.2-.1-.1.2,0,.3-.2.1-.2.2,0,.2-.1,0-.2.1,0,.2-.1,0-.1.2,0,.1-.1,0-.1.1,0,.1,0,.1-.1a6.46,6.46,0,0,0,1.9.4h.1a6.46,6.46,0,0,0,1.9-.4h.1c-.1,0-.2.1,0,.1-.2,0-.1.1,0,.1-.2,0-.1.1,0,.2-.3,0-.2.1.1.2C19.8,27.2,19.8,27.2,19.9,27.3Zm-4.2-.1c-.2-.2-.2-.1-.1.1-.2-.1-.3-.1-.5-.2,0-.1,0-.1-.2-.1.3-.1.4-.3,0-.2.2-.1.4-.3.1-.2.2-.1.3-.2,0-.2a.35.35,0,0,0,.2-.1c.2.1.5.2.7.3v.1c-.1-.1-.2,0,0,.1-.2-.1-.1,0,0,.1-.2-.1-.2.1,0,.2C15.5,26.9,15.5,27.1,15.7,27.2Zm-1-.2c-.1,0-.1-.1-.2-.1s-.4-.1-.6-.2c.2-.2.2-.3-.1-.2.3-.1.5-.4,0-.3.2-.1.4-.3,0-.2.2-.1.3-.3,0-.2.1,0,.1-.1.2-.1.3.2.5.3.8.5-.2-.1-.2.1,0,.2-.2-.2-.2,0,0,.2-.3-.2-.2.1-.1.2C14.5,26.5,14.5,26.8,14.7,27Zm-.9-.5c-.3-.2-.3-.1-.3.1-.1,0-.1,0-.2-.1s-.3-.1-.4-.1c.2-.2.2-.3-.2-.2.3-.1.4-.4,0-.3.2-.1.4-.4,0-.2.2-.1.3-.3,0-.2.2-.1.2-.2,0-.2.1,0,.2-.2,0-.1.2-.1.1-.2,0-.1.1-.1.1-.1,0-.1.1-.1.1-.1,0-.1v0c-.1,0-.1,0,0,.1-.1,0-.1,0,0,.1-.1-.1-.2,0,0,.1-.2-.1-.1.1,0,.1-.2-.1-.2.1,0,.2-.3-.1-.2.1,0,.2-.3-.2-.2.1,0,.2-.4-.2-.3.1,0,.3-.3-.1-.3,0-.2.1-.3,0-.5-.1-.7-.1.2-.2.2-.4-.2-.2.3-.1.4-.4,0-.3.2-.1.4-.4,0-.2.2-.1.3-.3,0-.2.2-.1.2-.2,0-.2.1-.1.2-.2,0-.1.2-.1.1-.2,0-.1.1-.1.1-.1,0-.1.1-.1.1-.2,0-.1v0c-.1,0-.1,0,0,.1-.1,0-.1,0,0,.1-.1,0-.2,0,0,.1-.2-.1-.1.1,0,.1-.2-.1-.2.1,0,.2-.3-.1-.2.1,0,.2-.4-.2-.2.1,0,.2-.4-.2-.3.1,0,.3-.4-.1-.3,0-.2.2h-.1a1.48,1.48,0,0,0-.7.1v-.1c0-.1-.1-.1-.2-.2a.35.35,0,0,1-.2-.1c-.1-.1-.1-.2-.2-.3v-.1a.31.31,0,0,0-.1-.2.37.37,0,0,0-.1-.3,5.86,5.86,0,0,1-.2-2,8.92,8.92,0,0,0-.2-1.1A12.5,12.5,0,0,1,9.1,20a14.7,14.7,0,0,1,0-2.1v-.7l2.4,5a7.89,7.89,0,0,0,1.8,2.9c.2.2.5.4.7.6a.1.1,0,0,0,.1.1c-.2-.1-.2.1,0,.2-.2-.2-.2.1,0,.2-.3-.2-.2.1,0,.2C13.5,25.9,13.5,26.3,13.8,26.5Zm-3.6-.2s.1,0,.2.2-.1,0-.1,0v-.1c-.1,0-.1,0-.1-.1-.1.1-.1.1-.1,0H10v.1a.22.22,0,0,0,.2.2.1.1,0,0,1,.1.1.1.1,0,0,0-.1.1.35.35,0,0,0,.2.1h-.1c-.1,0-.2,0-.2-.1l-.1-.1c-.1,0-.1,0-.2-.2a.1.1,0,0,0-.1-.1,1,1,0,0,0-.6-.4.35.35,0,0,1-.2-.1v-.2a.1.1,0,0,0,.1-.1c.1,0,.1-.1.2-.1s.5,0,.6,0,.1.2.2.3.2.1.3.2a.35.35,0,0,1,.2.1h-.1a.1.1,0,0,0-.1.1c0,.1,0,.1.1.1l.1.1a.31.31,0,0,0-.2-.1C10.2,26.2,10.2,26.2,10.2,26.3Zm-.8-.1L9.2,26C9.3,26.1,9.3,26.2,9.4,26.2Zm1.5-5.9c0,.2.1.4.1.6l-4.9-10a.1.1,0,0,0,.1-.1ZM7.1,11.8c0-.2.1-.4.1-.6v.6Zm1.5,2A3.15,3.15,0,0,0,8,12.5v-.2a6.4,6.4,0,0,1,.5-1.7c.8,1.5.9,1.6,1,1.6H10c.3,0,.6-.1.9-.1v7.6l-2-4.2A10.93,10.93,0,0,0,8.6,13.8Zm-.1.1a7.07,7.07,0,0,1,.2,1.2L7.4,12.4a.75.75,0,0,1,.5.1.31.31,0,0,0,.1.2A7.81,7.81,0,0,0,8.5,13.9Zm3.3,6.4h.1v-.1H12v.1c0,.1.1.1.2.1v.1c0,.1.1.1.2.1a.1.1,0,0,0-.1.1c0,.1.2.1.3.1v.1l.1.1c0,.1.1.3.1.4h-.2l-.1-.4h-.3l.1-.1H12v-.1h-.3v-.1h-.3l.1-.1Zm.1-.3H12v-.1a.35.35,0,0,1,.1.2v0a.35.35,0,0,1,.1.2v.1c0-.1,0-.1.1-.1a.35.35,0,0,1,.1.2v0a1.44,1.44,0,0,0,.2.3,4.08,4.08,0,0,0,.2.7h-.2l-.2-.6c-.1,0-.3,0-.3-.1h-.2v-.1h-.1c-.1,0-.2,0-.2-.1l.1-.1h-.3l.1-.1Zm.3-.2h.1v-.1a.1.1,0,0,1,.1.1v.1c0,.1.1.1.2.1a.1.1,0,0,0-.1.1c0,.1.1.1.2.1h-.1l-.1.1a.35.35,0,0,0-.1-.2h-.1a.35.35,0,0,0-.1-.2h-.1v-.1Zm.5-.1h.1V20h.1v.3a.1.1,0,0,1,.1-.1h0v.3a3.93,3.93,0,0,0,.2.6.31.31,0,0,1-.1.2,1.45,1.45,0,0,1-.2-.7c-.1,0-.3-.2-.3-.2h0a.35.35,0,0,1-.2-.1h.1l-.1-.1-.1-.1h0l-.1-.1h.1v-.1l.1.1.1-.1C12.7,19.5,12.7,19.6,12.7,19.7Zm.3-.1h0l.1.1v.1a.31.31,0,0,0,.1.2c0,.1.1.2.1.3v.1c0,.1.1.2.2.4s0,.1-.1.2c-.1-.2-.1-.4-.2-.6v-.3h-.1v-.2H13v-.2l-.1-.1v-.1H13v-.1l.1.1.1-.1Zm.9,0v-.2l.1.1-.1.1.2-.2v.1h.1l-.1.1v.1h.1l-.1.1-.1.1h.1a.35.35,0,0,0-.1.2c0,.1-.1,0-.1.1H14s-.1.2-.2.2c-.1.4-.3.7-.4,1.1h-.1c.2-.6.4-1.1.4-1.1v-.1a.37.37,0,0,0,.1-.3c.1-.1.1-.1.1-.2v-.1C13.8,19.7,13.9,19.7,13.9,19.6Zm.4-.1h.2v.2h-.1c-.1,0-.1.1-.1.2h-.1c-.1,0-.1.1-.1.2H14c.1-.1.2-.1.1-.2v-.1a.1.1,0,0,0,.1-.1v-.1C14.3,19.6,14.3,19.6,14.3,19.5Zm.5.4h.1a.31.31,0,0,0-.2.1h-.1c.1,0,.1,0,.1.1a.35.35,0,0,1-.2.1h-.1a.1.1,0,0,1,.1.1c0,.1-.1.1-.2.1h0a1,1,0,0,1-.3.1c-.1,0-.1.4-.3.9h-.2l.4-1a.44.44,0,0,1,.1-.3v0c0-.1,0-.2.1-.2h.1v-.1c0-.1,0-.2.1-.2l.1.1v-.3l.1.1h.1Zm.2.3a.1.1,0,0,1,.1.1c0-.1,0-.1-.1-.1.1.1,0,.1,0,.1h-.2a.1.1,0,0,1,.1.1.1.1,0,0,0-.1-.1c-.1,0-.1,0-.1.1h-.1l-.1.1a.1.1,0,0,0-.1.1l-.1.1-.3.6c0,.1,0,.1-.1.2h-.1c.1-.4.3-.8.3-.9s.3-.1.3-.2a.1.1,0,0,0-.1-.1c.1,0,.2,0,.2-.1v-.1a.35.35,0,0,0,.2-.1h.1v.1h.1Zm.2.3h0l-.1.1v.1h-.2v.1h-.5a1.45,1.45,0,0,0-.1.6h-.1l.2-.6c0-.1.1-.2.1-.3s.1-.1.1,0v0a.35.35,0,0,1,.1-.2v.1l.1-.1.1-.1v0l.1-.1v.1h.1ZM13.9,23a.76.76,0,0,1,.1-.4,1.63,1.63,0,0,0,.3.6h-.2C14,23.3,13.9,23.1,13.9,23Zm-.6-1.5h-.5v-.1H13A1,1,0,0,0,13.3,21.5Zm-.2-.1a2.19,2.19,0,0,0-.3-.8.31.31,0,0,0-.1-.2c.1,0,.1.1.2.1.1.2.2.5.3.7S13.2,21.4,13.1,21.4Zm-.4.2h.5c.2,0,.4-.1.6-.1h.3l.1.1a.1.1,0,0,1-.1.1h-.9c-.1.1-.5.1-.5.1a.1.1,0,0,1-.1-.1C12.7,21.7,12.7,21.7,12.7,21.6Zm.8-.1c0-.1,0-.1.1-.2.2-.5.4-.9.4-.9l.1-.1v.2l-.4,1Zm-.2.3c.2-.1.2,0,.2,0,.2.2.3.6.4.6a.1.1,0,0,1-.1.1h-.1c0-.1,0-.1-.1-.2S13.5,22,13.3,21.8Zm.1.2h-.6a.1.1,0,0,1-.1-.1v-.1h.5C13.4,21.9,13.4,21.9,13.4,22Zm.3,0h.1v.2C13.8,22.1,13.8,22,13.7,22Zm0-.1-.1-.1h.5c.1,0,.1,0,.1.1a.1.1,0,0,1-.1.1h-.2C13.9,21.9,13.8,21.9,13.7,21.9Zm-.8.1h.2a6.72,6.72,0,0,1-.6,1.2l-.2-.1a.1.1,0,0,1,.1-.1A9.29,9.29,0,0,1,12.9,22Zm.2,0h.2a4.45,4.45,0,0,0-.5,1.3l-.2-.1C12.7,22.9,12.9,22.5,13.1,22Zm-.1.7a4.88,4.88,0,0,0,.3-.7h.2a7,7,0,0,1-.5,1.3h-.2A3.93,3.93,0,0,1,13,22.7Zm.5-.7c0,.1.1.1.1.2-.2.5-.3.9-.4,1.1H13A12.25,12.25,0,0,0,13.5,22Zm0,.5c0-.1,0-.1.1-.2a.1.1,0,0,0,.1.1h.1c-.1.3-.1.5-.2.8v.1h-.2C13.3,23.2,13.4,22.9,13.5,22.5Zm.1.8a3.09,3.09,0,0,1,.2-.8.1.1,0,0,0,.1-.1.31.31,0,0,0-.1-.2c0-.1,0-.1.1-.2h.2c-.1.4-.2,1-.3,1.4h-.2Zm.3-.2c0,.1.1.2.1.3h-.2A.37.37,0,0,1,13.9,23.1Zm.1-.5c0-.1,0-.2.1-.2l.3.6a.37.37,0,0,1,.1.3h-.2A2.39,2.39,0,0,1,14,22.6Zm.4.5c-.1-.3-.3-.5-.4-.8a.37.37,0,0,1,.1-.3,4.05,4.05,0,0,0,.5.9.1.1,0,0,0,.1.1l-.2.1C14.4,23.2,14.4,23.2,14.4,23.1Zm-.7-3.5h.1a.31.31,0,0,1-.1.2v.1h.1a.35.35,0,0,0-.1.2v.1h.1a1.44,1.44,0,0,1-.2.3,3.59,3.59,0,0,1-.4,1.1.1.1,0,0,1-.1-.1c.2-.5.3-.8.4-1.1a.49.49,0,0,1-.1-.3h.1V20a.35.35,0,0,0-.1-.2h.1v-.1a.35.35,0,0,1-.1-.2h.1v-.1a.35.35,0,0,1-.1-.2h.1l.1-.1.1.1h.1C13.9,19.4,13.8,19.5,13.7,19.6Zm-.2-.1h0c-.1,0-.1.1,0,0a.19.19,0,0,0,0,.3h-.1a.31.31,0,0,0,.1.2h-.1a.37.37,0,0,0,.1.3v.3c0,.1,0,.1-.1.2,0-.2-.1-.3-.1-.4s-.2-.2-.2-.3h.1V20a.35.35,0,0,1-.1-.2h.1v-.1a.35.35,0,0,1-.1-.2h.1v-.1a.35.35,0,0,1-.1-.2h.1l.1-.1.2.4h0Q13.35,19.35,13.5,19.5Zm7.1.5a4.35,4.35,0,0,1,.6-.7l.6.6L20.7,21c-.1-.1-.2-.3-.3-.3A.78.78,0,0,0,20.6,20Zm3.7.4-.3.4-1.1-1.1.4-.4Zm-.9-1h.4l.6.6-.1.3Zm-.5.4.9,1h-.3l-.7-.7Zm.1.6.3.3-.6.6-.3-.3Zm.7,1.9c.1.1.1.1.1.2s0,.1-.1.2-.1.1-.2.1-.2,0-.2-.1l-2-2.1.3-.3Zm-1.4-.6-1.2,1.2a.31.31,0,0,1-.2.1c-.1,0-.1,0-.2-.1a.35.35,0,0,1-.1-.2c0-.1,0-.1.1-.2l1.2-1.1Zm4.6-5.3c-.2.5-.4.9-.6,1.3s-.3.5-.4.8v.1c-.7,1.5-1.3,2.8-1.3,2.7a6.28,6.28,0,0,0,.3-1.9l3-6.1a.9.9,0,0,1,.5.1C28.2,13.7,27.6,14.9,26.9,16.4Zm-1-2.9a.1.1,0,0,1-.1.1,1.38,1.38,0,0,0-.3.4h.1c.1-.2.1-.3.2-.4a1.38,1.38,0,0,0,.3-.4v-.1H26a.1.1,0,0,1,.1-.1.37.37,0,0,0,.1-.3c.2,0,.4.1.6.1V13a.37.37,0,0,1-.1.3.1.1,0,0,0,.1-.1v-.1a.1.1,0,0,0,.1.1c.1,0,.1,0,.1-.1v-.5c.1,0,.3.1.4.1s.3.1.4.1L27.4,14a.35.35,0,0,1-.1-.2V14c0,.2-.1.4-.1.6h-.1a1.88,1.88,0,0,0-.4.9l-.1.3v-.5a.1.1,0,0,0,.1-.1c0-.1.2-.7.4-.8H27a2.19,2.19,0,0,0-.3.5v-.2a.52.52,0,0,1,.2-.4.35.35,0,0,0,.1-.2h-.1c0,.1-.1.1-.1.2a1.45,1.45,0,0,0-.2.7.1.1,0,0,0,.1.1,5.38,5.38,0,0,0-.1,1.1l-.1.1v.2l-.1.2c0-1,.1-1.6.1-2s.1-.4.2-.5.1-.1.1-.2v-.1h-.1a.1.1,0,0,1-.1.1.76.76,0,0,0-.2.5.1.1,0,0,0-.1.1,13.58,13.58,0,0,0-.1,2.4l-1,2V12.3a3.85,3.85,0,0,0,1.2.5c0,.1-.1.2-.1.3C25.9,13.3,25.9,13.4,25.9,13.5Zm1.4.7-.1.1a.37.37,0,0,1,.1-.3ZM28.9,12h-.1c-.1,0-.1-.1-.2-.1v-.1L30.9,7c.1,0,.1-.1.2-.2V7Zm-2.2-1.5a2.91,2.91,0,0,0-.2.8c-.1,0-.1-.1-.2-.1a2,2,0,0,1,.1-.5v-.2c0-.1.1-.1.1-.2s.1-.2.2-.2S26.7,10.6,26.7,10.5Zm.2-.3h0c.1-.1.1,0,.1.1v.5a2.48,2.48,0,0,1-.1.9c-.1-.1-.2-.2-.3-.2A11.15,11.15,0,0,0,26.9,10.2Zm.1,1.6a2.08,2.08,0,0,0,.1-1.1c0-.4,0-.5.1-.6h.1v.6c0,.3.1.7,0,.8v.1h.1a1.35,1.35,0,0,0,0-.9c0-.2-.1-.4,0-.5s.1,0,.2-.1h.1a3.44,3.44,0,0,0,.1.9c0,.2.1.5.1.6v.1H28V11c0-.3-.1-.7-.1-.8s.1-.1.2-.1c.1.8.2,1.3.1,1.4v.1h.1a9.89,9.89,0,0,0-.1-1.5l.1-.1a3.44,3.44,0,0,1,.1.9v.4h.1s.1,0,0-.1v-.4a3.75,3.75,0,0,0-.1-1c.1,0,.1-.1.2-.1h.1a1.09,1.09,0,0,0,.1.5c0,.2.1.5.1.8a.1.1,0,0,0,.1.1l-.4.8h-.1c-.1,0-.2.1-.3.1a.31.31,0,0,0-.1-.2v-.1a.1.1,0,0,0-.1.1v.4A6.39,6.39,0,0,1,27,11.8Zm2.4-2.1-.2.5V9.9a.6.6,0,0,0-.1-.4h.2v.1C29.4,9.5,29.4,9.6,29.4,9.7Zm-.3.6-.2.5a2.2,2.2,0,0,0-.1-.8,4.33,4.33,0,0,0-.1-.5.1.1,0,0,0,.1-.1h.1v.4A.65.65,0,0,1,29.1,10.3Zm.4-1V9.2a.1.1,0,0,1,.1-.1h.1l-.3.5V9.5C29.5,9.4,29.5,9.4,29.5,9.3ZM30.8,6a1.51,1.51,0,0,1-.4.8v.1a.52.52,0,0,0,.4-.2V7l-.2.4a.52.52,0,0,1-.4-.2V6.6a.54.54,0,0,0,.3-.4c.1-.1.2-.2.3-.2a.31.31,0,0,1,.1-.2C30.8,5.8,30.8,6,30.8,6Zm0,.6-.1.1h-.1c.1-.1.1-.2.2-.3Zm.2.2a.31.31,0,0,1,.1-.2v.1a.1.1,0,0,1-.1.1v0Zm1.4-1c.1.2,0,.4,0,.6a1.55,1.55,0,0,0-.2.8.32.32,0,0,1-.3-.3A2.22,2.22,0,0,0,32.4,5.8Zm-.7,1.1-.1.1.1-.1c-.1.1-.1,0-.1,0h-.1l-.1.2V6.2a.77.77,0,0,1,.3-.2c0-.1.3-.3.3-.6.2.4,0,.6-.2.9s-.2.3-.2.4v.1c0,.1,0,0,.1.1a.76.76,0,0,1,.2-.5,1.14,1.14,0,0,0,.3-.8C32.5,6,32,6.6,31.7,6.9Zm1-2.2c-.1,0-.2,0-.2-.1V4.4l.2-.4v.1h-.1c0,.1-.1.2-.1.3S32.6,4.6,32.7,4.7Zm.1-.9c0-.1-.1-.1-.1-.2l.6-1.3C33.4,2.8,33.2,3.1,32.8,3.8Zm.5-1.5-.6,1.3h-.2C32.8,2.9,32.9,2.5,33.3,2.3ZM32.2,3.8a.6.6,0,0,0,.4-.1c0,.1.1.3.2.3a1.44,1.44,0,0,1-.2-.3C32.6,3.8,32.4,3.8,32.2,3.8Zm.1.2Zm-.2.1c0,.1-.1.1,0,0Zm-.1.2a.37.37,0,0,0,.3-.1l.2-.2V3.9h.1l-.2.5a.35.35,0,0,1-.2.1c-.2-.1-.2-.1-.2-.2S31.9,4.3,32,4.3Zm.1.3c.1,0,.1,0,.2-.1,0,.1,0,.1.1.1a.31.31,0,0,0,.2.1h-.2a.31.31,0,0,1-.2-.1V4.5l-.1.1c-.1.1-.1,0-.2,0l-.1-.1C31.9,4.5,32,4.6,32.1,4.6Zm-.2.1a.37.37,0,0,0,.3.1c0,.1.1.1.2.2a.1.1,0,0,1-.1.1l-.2-.2C32,4.8,31.9,4.8,31.9,4.7Zm-.1.2h.3c.1,0,.1.1.2.1a.1.1,0,0,1-.1.1L32,4.9C31.9,5,31.8,5,31.8,4.9Zm-.1.2H32c.1,0,.1.1.2.1v.1L32,5.1A.19.19,0,0,1,31.7,5.1Zm-.1.2h.2c.1.2-.1.4-.3.5a1.38,1.38,0,0,0-.4.3v.1c0,.1-.1.2-.1.3V6C31,5.5,31.2,5.3,31.6,5.3Zm0-2.4a.31.31,0,0,0,.1-.2V2.5a.35.35,0,0,1,.2-.1c.1,0,.1,0,.2.1s.1.1.1.2,0,.1-.1.2h-.5a2.65,2.65,0,0,1-.5.6H31Zm-1-.2V2.5a.35.35,0,0,0-.1-.2.1.1,0,0,1,.1-.1h.2c.2-.1.2,0,.2,0v.2c0,.1-.1.1-.2.1s-.1.1-.2.2a4.5,4.5,0,0,0-.2.8h-.1C30.4,3.3,30.5,2.9,30.6,2.7Zm.1.9c.2.1.3.2.3.4a.22.22,0,0,1-.2.2v.1h.1c.1-.1.2-.2.2-.3V3.8h.1a.1.1,0,0,0,.1.1c.1.1,0,.3-.1.4a.37.37,0,0,1-.3.1c-.1,0-.1,0-.1-.1s-.1-.1-.1-.2V3.9l-.1-.1a.14.14,0,0,1,.2,0v.1a.1.1,0,0,0,.1.1c.1,0,.1,0,.1-.1s0-.2-.1-.2-.2,0-.4,0l-.1-.1C30.4,3.5,30.6,3.5,30.7,3.6ZM29.3,5.1h.2l-.1.1-.1.1Zm.1,0a.37.37,0,0,1-.3-.1L29,4.9V4.4a1.45,1.45,0,0,0,.7.2,1.14,1.14,0,0,0,.8-.3v.1a.73.73,0,0,1-.5.5A1.27,1.27,0,0,1,29.4,5.1Zm-.5-.9c.1-.1.1-.1.2-.1A1.63,1.63,0,0,1,30.3,4c.1,0,.1,0,.1.1v.2a1.08,1.08,0,0,1-.8.2A.91.91,0,0,1,28.9,4.2Zm-.7,0c0-.3.7-.6,1.3-.6.4,0,.5,0,.5.1h.1l.1.1a1.42,1.42,0,0,0-1.4.4.3.3,0,0,1-.4,0h-.1v.1C28.2,4.3,28.2,4.3,28.2,4.2Zm.6.2ZM27.7,6.2h.2a.35.35,0,0,1-.2.1C27.6,6.3,27.6,6.2,27.7,6.2Zm-2.9,4.5c.1-.1.1-.2.2-.3.2-.3.3-.5.5-.8a7.26,7.26,0,0,0,.5-.9,3.39,3.39,0,0,1,.6-.6,1.27,1.27,0,0,1,.6-.1h.3a1.33,1.33,0,0,1,.7-.3h.1c0,.3.1.5.2.5a.1.1,0,1,0,0-.2,4.33,4.33,0,0,1-.1-.5.85.85,0,0,0-.2-.6,1.23,1.23,0,0,0,.5-.2V6.6h-.1a1.27,1.27,0,0,1-.6.2h-.5a.1.1,0,0,1-.1-.1.37.37,0,0,1,.1-.3.22.22,0,0,0,.2-.2V6.1a1.24,1.24,0,0,0-.3-.2V5.8s.1.1.1,0c.5.1.5,0,.5-.1s-.1-.1-.2-.1c.1,0,.1,0,.2.1a.1.1,0,0,1-.1.1h-.3a1.33,1.33,0,0,1,.3-.5.1.1,0,0,1,.1-.1c.1-.1.1-.1.1-.2a.37.37,0,0,0,.3.1h.1l.2.2V5.2c-.2-.1-.3-.2-.4-.2H28a.1.1,0,0,0-.1-.1c-.1,0,.1-.1.1-.2s.1-.2.2-.3a.1.1,0,0,0,.1-.1c.1,0,.1,0,.2.1a1,1,0,0,0-.5.4c.2-.2.4-.4.6-.4h.1v.2h-.2c-.1,0-.1-.1-.2-.1s-.2.1-.4.2c.3.1.5.2.5.3a.37.37,0,0,1-.1.3l-.1.1h.2a.35.35,0,0,1,.2.1v.1h-.2c-.1,0-.1.1-.1.2s0,.1.1.2c-.1,0-.1.1-.1.2a.37.37,0,0,0,.1.3c.1,0,.1.1.2.1h-.2c-.1,0-.1-.1-.1-.2s0-.1.1-.1h.1l.5-.1h-.1a.1.1,0,0,0-.1-.1h-.1a.1.1,0,0,0-.1.1c0,.1,0,.1.1.1a.1.1,0,0,1,.1.1c.1,0,.1,0,.2-.1h-.1c.1.1.1.1,0,.1h-.1V6.3a.1.1,0,0,0,.1.1.35.35,0,0,0,.2-.1.31.31,0,0,0-.1-.2c0-.1.1-.1.1-.2a.19.19,0,0,0,0-.3H29v.3a.1.1,0,0,1-.1.1c-.1,0-.1,0-.2-.1V5.7h.2c.1,0,.1,0,.1-.1V5.4c-.1-.1-.1-.1-.3-.1a.37.37,0,0,0,.1-.3c0-.1-.2-.3-.5-.3.1-.1.1-.1.2-.1s.1,0,.2.1h.2v.1a.77.77,0,0,0,.2.3v.2c.1.1.2,0,.3,0h.3c.1.1,0,.2,0,.4-.2.2-.3.3-.4.3V5.8h-.1c0,.1-.1.2,0,.3h.1q-.15,0,0,.3a3.88,3.88,0,0,1,0,1.1l-.1.1c-.2.1-.4.2-.2.4a.74.74,0,0,0,.6-.5,6.09,6.09,0,0,0,0-1.4h-.1a.78.78,0,0,0,.4-.4.45.45,0,0,0,0-.5l-.1-.1L30,5a1,1,0,0,0,.6-.5v.1a1.45,1.45,0,0,1-.3,1c-.3.3-.5.4-.6.4v.1h.1a2.83,2.83,0,0,0,.6-.3c.3-.2.4-.3.3-1.2A1.19,1.19,0,0,1,30.5,6a.1.1,0,0,1-.1.1c0,.1-.1.2-.2.3s-.1,0-.1.1a3.18,3.18,0,0,1-.2,1.4V8a.1.1,0,0,0,.1-.1c.1-.2.1-.4.2-.5a.37.37,0,0,0,.3.1l-.6,1.3c-.1,0-.2,0-.2.2-.1,0-.3,0-.3.3h-.1c-.1-.1-.2,0-.3,0s-.1.1-.1,0-.2,0-.2.1-.1.1-.2.1-.1,0-.1.1-.1.1-.2.1a.35.35,0,0,0-.2.1c-.1,0-.1,0-.1.1l-.1.1c-.1-.1-.2,0-.3.1-.3-.3-.5-.1-.6-.1l.2-.4V9.5h-.2a.7.7,0,0,0-.2.4c-.1.1-.1.2-.2.2s-.1.2-.2.4a.45.45,0,0,1-.3.3c0,.2-.1.2-.1.3a.1.1,0,0,1-.1-.1v-.1h-.1c-.1,0-.1,0-.1.1,0,.3.2.3.4.4a.76.76,0,0,1,.4.2,2.21,2.21,0,0,0,1.3.7c.1,0,.1-.1.2-.1s.2-.1.3-.2v.1a.1.1,0,0,0,.1.1c.2,0,.3,0,.3.1h.1c.1,0,.1,0,.2-.1h0c-.1,0-.1.1-.2.1a.1.1,0,0,0,.1-.1h.1v.1l-.1.1h.1a.1.1,0,0,1-.1.1h-.1a.1.1,0,0,0-.1.1h-.1a2,2,0,0,1-.7-.1h-.1c-.1,0-.2-.1-.4-.1s-.7-.2-1.1-.3a5.07,5.07,0,0,1-1.5-.7,1.08,1.08,0,0,1-.4-.5C24.5,11.2,24.6,11,24.8,10.7Zm4.6-4.3V6.3h.1a5.19,5.19,0,0,1,0,1.3c0,.2-.3.3-.4.3s0-.1.2-.2.1-.1.1-.2A4,4,0,0,0,29.4,6.4Zm-3.1,4.5a.37.37,0,0,1-.1.3c-.1,0-.1,0-.2-.1h-.1a.35.35,0,0,1,.2-.1C26.2,11,26.2,10.9,26.3,10.9Zm-3,2.3c0,.1.1.1,0,0a.77.77,0,0,1,.3.2.22.22,0,0,1,.2.2c.1,0,.1.1.1.2s.1.1.1.2.1.1.1.2v.2c.1,0,.1.1.1.2a.45.45,0,0,1,0,.5c.1.1,0,.2,0,.3s.1.2,0,.3v.1h-.1c-.1,0-.1,0-.1-.1v-.8a.14.14,0,0,0,0-.2v1a.35.35,0,0,0,.1.2v.2c0,.1-.1.2-.1.3v.7c-.1.1-.1.1,0,.2v.3l-.1.1v-.3l-.1.1a.31.31,0,0,0-.1.2h-.1a1,1,0,0,1,.1-.3V17a4.33,4.33,0,0,0-.1-.5v-.1a1,1,0,0,1-.1-.3c0-.1-.1-.1-.1-.2s-.1-.1-.1-.2-.1-.1-.1-.2-.1-.1-.1-.2v-.7L23,13.1a.1.1,0,0,1,.1.1Zm.2,4.2v.2h-.2v-.3l-.1.1c-.1.1-.1.1-.1.2a1,1,0,0,1,.1-.3.1.1,0,0,0,.1-.1.37.37,0,0,1,.1-.3c.1-.2,0-.4,0-.5s-.1-.2-.1-.3,0-.1-.1-.2-.1-.1-.1-.2-.1-.1-.1-.2-.1-.1,0-.1V15a.1.1,0,0,1,.1-.1v.4c0,.1-.1.2.1.2,0,.1,0,.1.1.2a.35.35,0,0,0,.1.2l.1.1a.44.44,0,0,0,.1.3v.1a.1.1,0,0,1-.1.1Zm-.8-2.6c-.2,0-.3-.1-.4-.1l.2-1.9h.2l.3,1.9C23,14.8,22.9,14.8,22.7,14.8Zm-.4-2.1a.4.4,0,1,1,.7.3l-.1.1v-.4a.2.2,0,0,0-.4,0v.4l-.1-.1A.37.37,0,0,1,22.3,12.7Zm-1.6,2.7H21v-.1l.1-.1a.14.14,0,0,1,0-.2.14.14,0,0,1,0-.2h.1v-.1c0-.1,0-.2.1-.2v-.1l.1-.1c0-.1,0-.2.1-.2a.22.22,0,0,1,.2-.2c0-.1,0-.1.2-.2,0-.1.1-.2.2-.1.1-.1.1-.1.2-.1h.1a.35.35,0,0,1,.2-.1h.1l-.2,1.5V15l.1.1c.1.1.1.1,0,.1h-.1v.2s-.1,0,0,.1v.2c0,.1,0,.1.1.2V16a1.49,1.49,0,0,1-.1.6v1.1c0,.2-.1.2-.2.2v-.3c-.1,0-.1.1-.1.2v.1a.6.6,0,0,1,.1-.4V17a2,2,0,0,0-.1-.7c-.1-.2-.2-.2-.2-.3v.1a.37.37,0,0,1-.1.3v.2c0,.2,0,.2-.2.2h-.1c-.1,0-.1-.1-.2-.3s0-.4-.2-.5h-.1c-.1,0-.2-.1-.3-.1C20.5,15.5,20.5,15.5,20.7,15.4ZM21.8,17v.5c0,.2-.1.2-.2.2v-.3a.1.1,0,0,0-.1.1v.1a.37.37,0,0,1,.1-.3V16.2a.49.49,0,0,0,.1-.3l.2.2v.1a1,1,0,0,1-.1.3Zm-1.6,1.6h0Zm-4.7-6.9h4.6V26.2a5.85,5.85,0,0,1-2.2.5h-.1a6,6,0,0,1-2.3-.6Zm0,7ZM14,18l-.8-.6-.9.6.3-1-.7-.6h.9l.3-.8.3.8h.9l-.6.6Zm-1.5-3.1.3.9-.7-.5-.7.5.3-.9-.7-.5h.8l.3-.7.3.7h.8Zm1.8-1.2.3.7h.8l-.6.5.3.9-.7-.5-.7.5.3-.9-.6-.5h.8Zm-.7-.4.3.9-.7-.5-.7.5.3-.9-.6-.5H13l.3-.7.3.7h.8Zm.4-1.8Zm-4.7-2c0,.1.4,1.7.7,1.7h.6a1.48,1.48,0,0,1,.7.1c.2,0,.4.1.7.1h.9c.2,0,.3.1.4.1a.37.37,0,0,1,.3.1c.1.1.2.1.3.2l.2.2.1.1a1.69,1.69,0,0,1-.5-.2.1.1,0,0,1-.1-.1c-.1,0-.2-.1-.3-.1s-.2.1-.2.1a.22.22,0,0,0,.2.2c.1,0,.3.1.3.2s-.1,0-.2-.1-.2-.1-.4-.1h-.3a.52.52,0,0,1-.4-.2H10.9V12a2.77,2.77,0,0,1-.9.1H9.6s-.2-.1-.9-1.5a.1.1,0,0,0-.1-.1A3,3,0,0,1,9,9.7c.1-.1.2-.2.2-.3ZM7.9,7.7c.2.1.4.1.5.3a3.08,3.08,0,0,1,.8,1.2c-.1.1-.2.3-.3.4s-.2.3-.3.4V9.7a.37.37,0,0,0-.1-.3,2.15,2.15,0,0,1,0-.8.1.1,0,0,0-.2,0,1.72,1.72,0,0,0,.1.8.37.37,0,0,0,.1.3c0,.1.1.4-.1.6l-.2.2c-.1,0-.1.1-.2.2v.1h.1c.1-.1.1-.1.2-.1a3.93,3.93,0,0,1-.2.6,5.39,5.39,0,0,0-.3,1c-.1,0-.4-.1-.5-.1a4.89,4.89,0,0,0,.1-1.3V9.8a6,6,0,0,0,.1-2.3C7.6,7.6,7.8,7.6,7.9,7.7ZM8,6.2Zm.5-2a.37.37,0,0,1-.1.3.1.1,0,0,0-.1-.1A.6.6,0,0,0,8.2,4C8.3,4,8.4,4,8.5,4.2Zm-3,2.5c-.1,0-.1-.1-.2-.2a.4.4,0,0,1,.2-.4V6s-.3-1.1.3-1.6c.2-.3.3-.5.6-.6a1.23,1.23,0,0,1,1,.1h.3a.6.6,0,0,1,.4.1v.3c-.1,0-.1.1-.2.1H7.6c-.2.2-.5.2-.8.3a.75.75,0,0,0-.8.5h.1c.1-.3.5-.4.8-.4H7c-.1.2-.3.2-.5.3a.76.76,0,0,0-.4.2.85.85,0,0,0-.3.5h.1a.45.45,0,0,1,.3-.4c.1-.1.3-.1.4-.2s.4-.1.5-.4h.1a.89.89,0,0,1-.5.8H6.4a1.33,1.33,0,0,0-.6.5,1.24,1.24,0,0,0,.3-.2v.5Q5.8,6.85,5.5,6.7Zm1.1-.9a.1.1,0,0,1-.1-.1h.1ZM5.8,7.2c.2-.1.4-.5.5-1.1V5.9h.1c.1.1.1.2.2.2h.1a.37.37,0,0,0,.1-.3,1.05,1.05,0,0,0,.5-.9c.2-.1.3-.1.3-.3h.3a.37.37,0,0,0,.3-.1.35.35,0,0,1,.1.2v.5a.45.45,0,0,0,0,.5.35.35,0,0,1,.1.2H8.1c-.1,0,0,.1,0,.1h.1v.1H8V6l-.1.1-.1.1h.1c0,.1.1.1.1.2a.1.1,0,0,1-.1.1v.1a.22.22,0,0,1-.2.2,1,1,0,0,1-.3-.1l-.1-.1-.2-.2H7a1.44,1.44,0,0,1,.3.2.76.76,0,0,1-.2.5c0,.3-.1.5,0,.7h.1s.1-.1,0-.1c-.1-.2,0-.3.1-.4a4.93,4.93,0,0,1-.1,2.4,3.7,3.7,0,0,0-.5-1.1c-.3-.4-.8-1-.9-1.1a.1.1,0,0,1-.1-.1C5.7,7.3,5.7,7.2,5.8,7.2Zm-.2,0c0,.1-.1.1-.1.2a.37.37,0,0,0,.1.3,5.86,5.86,0,0,1,.9,1.1A2.7,2.7,0,0,1,7,9.9a2.66,2.66,0,0,1-.1,1.4c0,.1-.1.2-.1.3l-.3-.7h.1a.52.52,0,0,0,.2-.4.1.1,0,0,0-.1-.1v-.1c0-.1,0-.1-.1-.2V9.9c0-.1-.1-.1-.2-.1V9.7c.1-.1,0-.1-.1-.1H6L5,7.5Zm.2,2.4a.1.1,0,0,0-.1.1L3.1,4.6,2.2,2.7a.1.1,0,0,1,.1-.1h.1Zm-.7-.3c-.1-.1-.1,0,0,0a.76.76,0,0,0,0,1l-.1.1c-.1,0-.2.1-.3.1v-.1a.6.6,0,0,0-.1-.4,3.45,3.45,0,0,0-.5-1.1c-.2-.3-.3-.3-.3-.3s.2-.1.2-.2a3,3,0,0,1,.5-.7l1,2.1-.3.3C4.9,9.9,5.1,9.4,5.1,9.3Zm-.6,1.2H4a1,1,0,0,0,.4-.5ZM3.4,9a.76.76,0,0,1-.2.4c-.1.1-.2.2-.2.3s-.1.1-.1.2a1.38,1.38,0,0,1-.3-.4A8.74,8.74,0,0,1,4,6.8l.4.8a3.74,3.74,0,0,0-.6.7c0,.1-.1.1-.2.2A.59.59,0,0,0,3.4,9Zm-.7,1-.1.1c0,.1-.1.1-.1.2s-.2,0-.2-.1V10c0-.1.1-.2.1-.3Q2.7,9.85,2.7,10ZM3,4.7H2.9a9,9,0,0,0-.9.5.1.1,0,0,1-.1.1c0,.1-.1.1-.1.2l-.1.2a5.48,5.48,0,0,1,1-1.6ZM2,2.6a.22.22,0,0,1,.2-.2c.1,0,.1-.1.2-.1h.1v.1H2.3C2.1,2.5,2.1,2.6,2,2.6ZM1.6,3.7,1.4,5.2l.3-.4.2-.4.2-1.3A.1.1,0,0,1,2.2,3l.3.7a10,10,0,0,0-1,1.7L1,4.7A8.79,8.79,0,0,1,1.6,3.7ZM.4,7.6C.2,7.3.1,7.1.2,6.9V6.7c.4-.3.7-.5.7-.5l.3-.6L1,5.8a2.15,2.15,0,0,0-.7.4A6.12,6.12,0,0,1,.8,5l.4.6C.9,6.2.7,6.9.4,7.6Zm.4.6A.31.31,0,0,1,.7,8a8.35,8.35,0,0,1,.8-1.9l.4.6.2-.4-.4-.6.2-.1a5.56,5.56,0,0,0,.8-.4c.1,0,.1,0,.1-.1s.2-.2.2-.3l.9,1.7A20.41,20.41,0,0,0,2.2,10c-.1.2-.1.4,0,.4h0c-.1,0-.3-.3-.5-.6a2.11,2.11,0,0,0-.5-1.1,4.17,4.17,0,0,1,.2-.6c0-.1,0-.1.1-.2l.1-1.8L1.1,7V8.5Zm2.1,3.9a8.47,8.47,0,0,0-.4,1.7v.3a4.33,4.33,0,0,0-.1.5.6.6,0,0,0,.1.4c.1.1.1.2.2.2s.1-.1.1-.2,0-.1-.1-.1a.1.1,0,0,0-.1.1v.1a.1.1,0,0,1-.1-.1c0-.1-.1-.2-.1-.4a.75.75,0,0,1,.1-.5V14a5.92,5.92,0,0,0,.4.6c.2.2.1.3.1.4-.1.3-.1.4-.3.4a2.77,2.77,0,0,1-.3-.9,3.63,3.63,0,0,0-.7-.9C1.2,13.1.5,12.4.5,11.9a3.75,3.75,0,0,1,.1-1l.2.2-.1.3.3-.1.3.3-.1-.4.3-.2H1l-.1-.3L.8,11H.5c.1-.4.2-.8.3-1.1A6.53,6.53,0,0,0,1,8.8c.3.4.5.8.7,1.1.2.5.4.7.6.7s.3-.1.3-.2c0,.1-.1.1-.1.2s-.2.3-.2.5-.1.6.1.7.2.1.5.1H3A.31.31,0,0,0,2.9,12.1Zm.9-.5a2,2,0,0,1-.8.1H2.8c-.3,0-.4,0-.4-.1a.63.63,0,0,1,0-.6,1.69,1.69,0,0,1,.2-.5l.3-.6c.1.1.2,0,.2-.1s.1-.2.2-.3.2-.3.3-.5c0,0,.1-.2.2-.2L4,9a2.18,2.18,0,0,1,.4,1,.1.1,0,0,1-.1.1c-.1.1-.2.3-.4.5a.76.76,0,0,0-.4.1s-.1,0,0,.1h.1a1.75,1.75,0,0,1,.5-.1h.5a1.06,1.06,0,0,0,.5-.2,2,2,0,0,0,.7-.6.52.52,0,0,1,.4-.2h.3v.1H6.1a.1.1,0,0,0-.1.1c0,.1,0,.1.1.1h.6v.1H6.2a.1.1,0,0,0-.1.1c0,.1,0,.1.1.1h.4v.1a.1.1,0,0,1-.1.1H6.2a.1.1,0,0,0-.1.1c0,.1,0,.1.1.1h.4a.1.1,0,0,1,.1.1.35.35,0,0,1-.1.2v-.1H6.5c-.1,0-.2,0-.2.1l-.1.1H5.6C5,11.2,4.5,11.5,3.8,11.6Zm1.1-.2a3,3,0,0,0,.7-.5H6l.6,1.2H6.3a.91.91,0,0,1-.3-.5.1.1,0,1,0-.2,0,.91.91,0,0,0,.3.5H5.8c-.2-.2-.4-.4-.4-.6,0,0,0-.1-.1,0s-.1,0,0,.1a2.09,2.09,0,0,0,.4.6.37.37,0,0,0-.3.1A1.62,1.62,0,0,1,4.9,11.4ZM4.8,25.6Zm-.6-.3V25a1.49,1.49,0,0,0,0-.7c0-.4-.1-2.5-.1-3.4v-.4a2.54,2.54,0,0,1,.2-1.2,11.57,11.57,0,0,0,.1-2.1,12.79,12.79,0,0,1,.1-2.1A9.58,9.58,0,0,1,5,13.4a8.2,8.2,0,0,0,.4-1.1,2.77,2.77,0,0,1,.9-.1h.2l2.1,4.2v3.2c.1.7.2,1.4.3,1.9a8.92,8.92,0,0,1,.2,1.1,10.31,10.31,0,0,0,.2,2,1.18,1.18,0,0,1-.7-.4l-.1-.1C7.2,23,6.7,22.3,6.4,19.6a.1.1,0,1,0-.2,0c.3,2.8.9,3.4,2.2,4.6l.1.1a1.93,1.93,0,0,0,.9.5.31.31,0,0,0,.1.2v.1a1.15,1.15,0,0,0-.6,0,.35.35,0,0,0-.2.1c-.1,0-.1.1-.2.1H7.7a7.93,7.93,0,0,0-.4-1.7,16.9,16.9,0,0,1-.9-8.9c-.1,6.2,1.5,6.5,1.6,6.5A.1.1,0,0,0,8,21s-1.5-.3-1.5-6.4a.1.1,0,0,0-.1-.1H6.3a11.63,11.63,0,0,1,.4-1.8.1.1,0,1,0-.2,0,17.81,17.81,0,0,0,.6,10.9,4.92,4.92,0,0,1,.4,1.7,1.49,1.49,0,0,0-.6-.1A8.47,8.47,0,0,0,6.6,23s0-.1-.1,0-.1,0,0,.1a7.92,7.92,0,0,1,.3,2.1v.4H6.7a.1.1,0,0,1-.1-.1c0-.1-.1-.1-.1-.2v-.5a11.11,11.11,0,0,0-.2-2.3s0-.1-.1,0-.1,0,0,.1a11.11,11.11,0,0,1,.2,2.3v.4c-.1,0-.2-.1-.3-.1-.5,0-.5,0-.7.1l-.1.1v-.2c0-.2.1-.4.1-.6a4.88,4.88,0,0,0,.3-1.4,49.12,49.12,0,0,1,.9-10.7.1.1,0,1,0-.2,0,49.12,49.12,0,0,0-.9,10.7,2.9,2.9,0,0,1-.3,1.4,2,2,0,0,0-.1.7C4.7,25.4,4.3,25.5,4.2,25.3Zm4.4.5ZM7,25.9Zm-1.7-.3a.31.31,0,0,0-.1.2H5.1A.22.22,0,0,0,5.3,25.6ZM5,25.5c.1,0,.1.1.2.1a.1.1,0,0,0,.1-.1H5.2C5,25.6,5,25.5,5,25.5Zm.9,1Zm.2-.4c0,.1,0,.1-.1.2a.1.1,0,0,0-.1.1.1.1,0,0,1-.1.1c-.1,0-.2,0-.2-.1h.2c.1,0,.1-.1.1-.2a.1.1,0,0,0-.1-.1.1.1,0,0,1,.1-.1v-.1H5.8c-.1,0-.1.1-.2.2a.1.1,0,0,1-.1.1l-.1.1v-.1l.2-.2v-.1H5.5a1.24,1.24,0,0,0-.2.3c-.1.2,0-.1.1-.1l.1-.1v-.1H5.4a.35.35,0,0,0-.1.2V26l.2-.1v-.1H5.4l-.1.1v-.1l.1-.1c.1-.2.2-.2.2-.3l.1-.1c.1-.1.1-.1.5,0,.2,0,.3,0,.4.1l-.1.1C6.2,25.8,6.1,26,6.1,26.1Zm1.4.8c-.2-.1-.4-.1-.5-.2.2-.1.6-.5,0-.2-.5-.3-.3,0-.2.2-.2-.1-.3-.1-.5-.2.2-.1.5-.5,0-.2a.1.1,0,0,1-.1-.1l.1.1c.2-.1.5-.6,0-.3.1-.1.2-.2.2-.3,0,.1.1.1.2.1s.1.2.2.4c-.5-.4-.3.2,0,.3.3-.1.6-.6,0-.3.3-.2.4-.6,0-.3.2-.1.3-.3.1-.3l.1-.1a.37.37,0,0,1,.3.1h.1a.1.1,0,0,1,.1.1c-.3-.1-.2.1,0,.2-.3-.1-.2.1,0,.3-.4-.3-.3.1,0,.3-.5-.4-.3.2,0,.3.3-.1.6-.6,0-.3.3-.2.4-.6,0-.3.2-.2.4-.4,0-.3.2-.1.3-.3,0-.2l.1-.1h.6l.1.1c-.3-.1-.2.1,0,.2-.3-.1-.2.1,0,.2-.4-.1-.2.1,0,.3-.4-.3-.3.1,0,.3-.5-.3-.3.2,0,.3.3-.1.5-.7,0-.3.3-.2.4-.6,0-.3.2-.2.4-.4,0-.3.1,0,.1-.1.2-.1s.1.1.2.1.3-.1.4,0,.1.2.3.3c-.4-.2-.4,0-.1.2-.2-.1-.2,0-.2.1-.2.1-.2.2-.3.2s0-.1-.3,0c-.6-.3-.3,0-.1.2-.3,0-.6-.1-.8-.1.2-.1.6-.5,0-.2C7.1,26.5,7.4,26.8,7.5,26.9Zm1.2.3H8.6c.1,0,.1-.1.2-.2A.35.35,0,0,1,8.7,27.2Zm.1.5-.1-.1c0-.1,0-.1-.1-.2h.2C8.7,27.5,8.8,27.6,8.8,27.7Zm-1.1-.5a6.37,6.37,0,0,0,.7.2,1,1,0,0,0-.3.1H7.8A.37.37,0,0,1,7.7,27.2Zm-.4.4a.35.35,0,0,0,.1.2c0,.1-.1.1-.1.2Zm8.9,2.1h0C16.3,29.7,16.3,29.8,16.2,29.7Zm1.7.4h-.1c0-.1,0-.1.1,0,0-.1.1,0,.1,0Zm-.1-.2Zm1.6-.1.1-.1h.1A.35.35,0,0,0,19.4,29.8Zm5.2.4c.2-.1.1-.2-.1-.2.3,0,.1-.2-.1-.2.4,0,.1-.2-.1-.2.4-.1.2-.3-.1-.2.5-.1.2-.3-.2-.3.7,0,.2-.3-.2-.4.4,0,.5-.1.4-.1h.3c0,.2.1.4.3,0-.1.4-.1.8.1.5v1.1Zm0,.1Zm.1.1ZM28,27.8a7,7,0,0,1,.6.9l.6.9a.45.45,0,0,1,0,.5,1.33,1.33,0,0,1-.9.6.76.76,0,0,1-.4-.1,3.11,3.11,0,0,1-.4-.6,2.09,2.09,0,0,1,.6-.4l.2.3a.37.37,0,0,0-.3.1.52.52,0,0,0-.2.4v.1h.1a.1.1,0,0,0,.1-.1c0-.1.1-.2.1-.3a.49.49,0,0,1,.3-.1h.2l-.3-.6c.4-.1.6-.1.8.1h.1v-.2a.86.86,0,0,0-.6-.3,2.57,2.57,0,0,0-1.2.5.35.35,0,0,1-.2.1,1.09,1.09,0,0,1-.2.4,3.48,3.48,0,0,1-1.5.7.6.6,0,0,1-.6-.3V30a8.17,8.17,0,0,0-.1-1.4,2.63,2.63,0,0,1,1.5.7v.4h.1a.6.6,0,0,0,.1-.4,2,2,0,0,0-1.6-.8h-.8a5.66,5.66,0,0,0-1.8.3c-.5.1-.9.3-1.3.4a8.39,8.39,0,0,1-3,.6h-.2a9.11,9.11,0,0,1-3.2-.6c-.4-.1-.8-.3-1.2-.4a7.25,7.25,0,0,0-2.5-.2c-1,.1-1.6.5-1.7.9-.1.1,0,.3.1.4h.1v-.2a.19.19,0,0,1,0-.3c.1-.3.6-.6,1.5-.7a8.17,8.17,0,0,0-.1,1.4v.4a.6.6,0,0,1-.6.3,2.63,2.63,0,0,1-1.5-.7c-.1-.1-.2-.1-.3-.2a2.08,2.08,0,0,0-1.2-.5.86.86,0,0,0-.6.3v.2h.1a.61.61,0,0,1,.8-.1l-.5.3h.2a.49.49,0,0,1,.3.1.37.37,0,0,1,.1.3c0,.1,0,.1.1.1h.1v-.1a.52.52,0,0,0-.2-.4.37.37,0,0,0-.3-.1l.2-.4a2.09,2.09,0,0,1,.6.4,1.79,1.79,0,0,1-.5.7c-.1.1-.2.1-.4.1a.87.87,0,0,1-.9-.6.45.45,0,0,1,0-.5,8.65,8.65,0,0,1,.7-1l.6-.9a.59.59,0,0,1,.5-.2c.3,0,.7.1.8.3a2.85,2.85,0,0,1,0,1.3.9.9,0,0,0,.1.5c.1.2.4.3.8.3h.1a.75.75,0,0,1,.5.1v.3a.1.1,0,0,0,.1-.1c0-.1,0-.3-.1-.3-.1-.2-.4-.2-.6-.2H9.6a1.17,1.17,0,0,1-.7-.2c.1,0,.1-.2.1-.3a6.6,6.6,0,0,0-.1-1.4,2.18,2.18,0,0,0-.1-.6c0-.2.3-.4.8-.6a.1.1,0,0,1,.1.1h.1a.52.52,0,0,0,.4.2c.1,0,.1,0,.2-.1h.1c.1,0,.1,0,.1.2l.2.9-.6-.3a4,4,0,0,0-.7-.7H9.4v.1l.2,1.2v.3H9.5a.35.35,0,0,0,.2-.1.77.77,0,0,0,.3-.1H9.9s-.1,0-.1-.2l-.2-.8.6.4c.3.2.6.3.7.4H11v-.1l-.3-1.2v-.2h0c-.1,0-.2,0-.2.1h-.2v-.1h.1v-.1h.7a7.47,7.47,0,0,1,2,.3c.4.1.8.3,1.2.4a8.86,8.86,0,0,0,3.1.7h.2a9.11,9.11,0,0,0,3.2-.6c.4-.1.8-.3,1.2-.4a7.47,7.47,0,0,1,2-.3,2.77,2.77,0,0,1,.9.1v.1c0,.1,0,.2.1.2h-.1c-.1,0-.3,0-.3-.1a.37.37,0,0,1-.3-.1h.1a.1.1,0,0,1,.1.1c0,.1,0,.1-.1.4l-.1.3c0,.2-.1.3-.1.4s0,.1-.1.1h.2c.1,0,.3.1.4.1.4.1.6,0,.7-.1a.85.85,0,0,0,.3-.5.75.75,0,0,0-.1-.5.55.55,0,0,0-.5-.3c.2,0,.3-.1.3-.2.5.2.8.5.8.6a2.64,2.64,0,0,1-.1.7,3.3,3.3,0,0,0,0,1.4c0,.1,0,.3-.1.3a.85.85,0,0,1-.6.2h-.3c-.2,0-.5,0-.6.2a.37.37,0,0,0-.1.3l.1.1v-.3a.75.75,0,0,1,.5-.1h.1a1.55,1.55,0,0,0,.8-.2.44.44,0,0,0,.1-.5V28a.78.78,0,0,1,.7-.3C27.7,27.6,27.9,27.7,28,27.8Zm2.5-1.7c0-.1,0-.1-.1-.1h-.1v.2h-.1c0-.1,0-.1-.1-.2H30c.1.1.1.1,0,.2v.1a.76.76,0,0,0-.1-.4h-.1V26a.3.3,0,0,1,0,.4.1.1,0,0,1-.1.1v-.4h-.1c.1.2,0,.3,0,.4v.1h-.1v-.1a.1.1,0,0,1,.1-.1h-.1v.1q-.15-.15,0-.6v-.5c0-.2-.1-.3,0-.5s0-.3,0-.4v-.2a3.51,3.51,0,0,0,.8-.5,1.88,1.88,0,0,0-.2,1.2c.1.2.1.4.2.5a.77.77,0,0,1,.1.3A.37.37,0,0,1,30.5,26.1Zm.1-.3Z"/><polygon class="cls-2" points="27.3 28.7 27.5 28.8 27.6 28.5 27.3 28.4 27.3 28.7"/><path class="cls-2" d="M28.1,21.7a3.6,3.6,0,0,1,.5-.9v.3a.1.1,0,0,0,.1.1c.1,0,.1,0,.1-.1V21h.1c.1-.1-.1-.5-.1-.6s-.1,0,0,.1v.2h-.1c-.4.1-.6.7-.6,1h0Q27.95,21.7,28.1,21.7Z"/><path class="cls-2" d="M28.9,17.2h0a.76.76,0,0,0,.1-.4v.6a.1.1,0,0,0,.1.1c.1,0,.1,0,.1-.1a2.22,2.22,0,0,0-.1-.9H29a.1.1,0,0,0-.1.1Z"/><path class="cls-2" d="M29.2,19.5c-.1,0,0,.1,0,0,.1.1.1.1.1,0s.1-.3.1-.4v.6h.1a2.64,2.64,0,0,0,0-.9v-.2a.1.1,0,0,0-.1-.1c-.1,0-.1,0-.1.1C29.3,19,29.2,19.2,29.2,19.5Z"/><path class="cls-2" d="M24,26.8c0-.1,0-.2.1-.2h-.5c.1,0,.1,0,.1.2l.1.9s-.4-.3-.5-.4c-.3-.2-.7-.5-.7-.5l-.1-.1v.1l.1,1.2v.3h.3a.35.35,0,0,1-.1-.2l-.1-.8.6.4a3,3,0,0,0,.7.5h.1v-.1Z"/><path class="cls-2" d="M28.7,18.8h0a.37.37,0,0,0,.1-.3V19a.1.1,0,0,0,.1.1c.1,0,.1,0,.1-.1a.75.75,0,0,0-.1-.5v-.4h-.1v.2A2,2,0,0,0,28.7,18.8Z"/><path class="cls-2" d="M12.4,26.7h-.8a.1.1,0,0,1,.1.1V28c0,.1,0,.1-.1.1h.2a1.76,1.76,0,0,1,.6.1h.1V28a.1.1,0,0,1-.1.1h-.2c-.2,0-.2-.1-.2-.2v-.5h.3c.1,0,.1,0,.1.1v-.1H12v-.5h.3c.1,0,.1,0,.1.1v-.3Z"/><path class="cls-2" d="M30,6.3a1.49,1.49,0,0,0,.7-.6V5.6h-.1a1.49,1.49,0,0,1-.6.6c-.1,0-.1,0,0,.1Z"/><polygon class="cls-2" points="15 28.2 15.1 28.4 15.3 28.3 15.2 28.1 15 28.2"/><path class="cls-2" d="M22.6,28.3h0a.37.37,0,0,1-.3-.1c-.2-.2-.8-.9-.9-1h-.1v.1l-.1,1.4c0,.1,0,.2-.1.2H21a.35.35,0,0,0,.2-.1c.1,0,.1,0,.2-.1h-.1v-.4l.4-.2.3.3h.1A.9.9,0,0,0,22.6,28.3Zm-.9-.3-.4.1v-.5Z"/><polygon class="cls-2" points="7.9 28.5 8 28.8 8.3 28.7 8.2 28.4 7.9 28.5"/><path class="cls-2" d="M5.6,15.6A16.86,16.86,0,0,0,6,12.4a.1.1,0,1,0-.2,0,7.83,7.83,0,0,1-.4,3.1,16.06,16.06,0,0,0-.5,4.6.1.1,0,1,0,.2,0A12.62,12.62,0,0,1,5.6,15.6Z"/><path class="cls-2" d="M18.1,29.2h0a.31.31,0,0,0-.1.2h-.3c-.2,0-.2,0-.3-.2v-.5h.3c.1,0,.1,0,.1.1v-.1h-.4v-.5h.3c.1,0,.1,0,.1.1v-.1H17c.1,0,.1,0,.1.1v1.2c0,.1,0,.1-.1.1h.8c.1,0,.1,0,.1-.1C18.1,29.4,18.1,29.3,18.1,29.2Z"/><path class="cls-2" d="M19.8,29.2c-.1,0-.2,0-.3-.2s-.6-1-.7-1.1a.1.1,0,0,0-.1-.1v.1l-.3,1.3a.22.22,0,0,1-.2.2h.2v-.1l.1-.3.5-.1.2.4h.1c.3,0,.4,0,.5-.1h0Q19.95,29.2,19.8,29.2Zm-.7-.4-.4.1.1-.5Z"/><path class="cls-2" d="M20.9,28.6h0a.1.1,0,0,1-.1.1c0,.1-.1.1-.2.1s-.2.1-.3,0-.1-.2-.2-.4l-.1-.2c-.1-.3-.1-.3-.1-.4v-.1H20c-.1,0-.2.1-.3.1s-.2.1-.3.1h.1c.1,0,.1,0,.1.1s0,.1.1.4l.1.3a.36.36,0,0,1,.2.3v.1h-.1a.35.35,0,0,0,.2-.1,4.17,4.17,0,0,1,.6-.2c.1,0,.1,0,.1-.1C20.9,28.8,20.9,28.7,20.9,28.6Z"/><path class="cls-2" d="M16.9,28l-.6-.2a.76.76,0,0,1-.4-.1h-.1c0,.1-.1.2-.1.3l.1-.1h.3l.4.1a12,12,0,0,0-1.2,1.1v.1c.4.1.8.2,1.1.3h.1l.1-.2v-.1a.1.1,0,0,1-.1.1c-.1,0-.1.1-.3,0l-.5-.1Z"/><path class="cls-2" d="M28.1,6h0c.1.3-.1.4-.1.4S28.2,6.3,28.1,6Z"/><path class="cls-2" d="M10.4,24.7c.1,0,.1,0,0,.1.1,0,.1,0,0,.1.1,0,.2,0,0,.1.2-.1.1.1,0,.1.2,0,.2.1,0,.2.3-.1.2.1,0,.2.4-.2.2.1,0,.2.4-.2.3.1,0,.2.4-.1.3.1.1.3a1.24,1.24,0,0,1-.2-.3c-.3-.1-.4-.4,0-.2-.2-.1-.4-.4,0-.2-.2-.1-.3-.3,0-.2-.2-.1-.2-.2,0-.2-.1,0-.2-.2,0-.1-.2-.1-.1-.1,0-.1-.1-.1-.1-.1,0-.1a.1.1,0,0,1,.1-.1v0Z"/><path class="cls-2" d="M72.2,26.9a1,1,0,1,1-2,0V25h-.4v1.9a1.27,1.27,0,0,0,1.4,1.4,1.31,1.31,0,0,0,1.4-1.4V25h-.4Z"/><polygon class="cls-2" points="40.6 25 40.6 25.3 41.7 25.3 41.7 28.2 42.1 28.2 42.1 25.3 43.2 25.3 43.2 25 40.6 25"/><polygon class="cls-2" points="83.7 25 83.7 26.4 81.9 26.4 81.9 25 81.5 25 81.5 28.2 81.9 28.2 81.9 26.8 83.7 26.8 83.7 28.2 84.1 28.2 84.1 25 83.7 25"/><polygon class="cls-2" points="77.8 25 76.9 27.7 76 25 75.6 25 76.8 28.3 77.1 28.3 78 25.6 78.9 28.3 79.2 28.3 80.3 25 80 25 79 27.7 78.1 25 77.8 25"/><polygon class="cls-2" points="52.6 25 51.4 26.8 50.2 25 49.9 25 49.9 28.2 50.2 28.2 50.2 25.6 51.4 27.3 51.4 27.3 52.6 25.6 52.6 28.2 53 28.2 53 25 52.6 25"/><polygon class="cls-2" points="66.2 25 66.2 25.3 67.3 25.3 67.3 28.2 67.7 28.2 67.7 25.3 68.8 25.3 68.8 25 66.2 25"/><rect class="cls-2" x="70.5" y="24" width="1.5" height="0.3"/><polygon class="cls-2" points="61 25 61 27.6 58.9 25 58.6 25 58.6 28.2 58.9 28.2 58.9 25.6 61 28.2 61.3 28.2 61.3 25 61 25"/><path class="cls-2" d="M64.1,25.4l.7,1.7H63.3Zm-.2-.4-1.5,3.3h.4l.4-.9H65l.4.9h.4L64.3,25Z"/><polygon class="cls-2" points="44.4 25 44.4 28.2 46.8 28.2 46.8 27.9 44.7 27.9 44.7 26.8 46.5 26.8 46.5 26.4 44.7 26.4 44.7 25.3 46.7 25.3 46.7 25 44.4 25"/><path class="cls-2" d="M55.8,25.4l.7,1.7H55Zm-.2-.4-1.5,3.3h.4l.4-.9h1.8l.4.9h.4L55.9,25Z"/><path class="cls-2" d="M113.4,26.6a1.26,1.26,0,0,1-1.3,1.3,1.32,1.32,0,0,1-1.3-1.3,1.3,1.3,0,0,1,2.6,0Zm-1.3-1.7a1.7,1.7,0,1,0,1.7,1.7,1.69,1.69,0,0,0-1.7-1.7"/><polygon class="cls-2" points="107.2 25 107.2 25.3 108.2 25.3 108.2 28.2 108.6 28.2 108.6 25.3 109.7 25.3 109.7 25 107.2 25"/><path class="cls-2" d="M119.6,26.6a1.26,1.26,0,0,1-1.3,1.3,1.32,1.32,0,0,1-1.3-1.3,1.3,1.3,0,0,1,2.6,0Zm-1.2-1.7a1.7,1.7,0,1,0,1.7,1.7,1.83,1.83,0,0,0-1.7-1.7"/><rect class="cls-2" x="101.9" y="25" width="0.4" height="3.3"/><path class="cls-2" d="M126.6,25.4l.7,1.7h-1.5Zm-.2-.4-1.5,3.3h.4l.4-.9h1.8l.4.9h.4L126.8,25Z"/><path class="cls-2" d="M121.6,26.6V25.3h1c.5,0,.8.2.8.6a.71.71,0,0,1-.8.7Zm2.2-.6a.91.91,0,0,0-.3-.7,1.22,1.22,0,0,0-.9-.3h-1.4v3.3h.4V27h.9l.9,1.3h.5l-1-1.3c.5-.2.9-.5.9-1"/><polygon class="cls-2" points="100.1 25 100.1 26.4 98.2 26.4 98.2 25 97.8 25 97.8 28.2 98.2 28.2 98.2 26.8 100.1 26.8 100.1 28.2 100.4 28.2 100.4 25 100.1 25"/><path class="cls-2" d="M105,25.4l.7,1.7h-1.5Zm-.1-.4-1.5,3.3h.4l.4-.9H106l.4.9h.4L105.3,25Z"/><polygon class="cls-2" points="91.9 25 90 26.9 90 25 89.7 25 89.7 28.2 90 28.2 90 27.4 90.7 26.7 92 28.2 92.4 28.2 91 26.4 92.4 25 91.9 25"/><path class="cls-2" d="M86.9,25.4l.7,1.7H86.1Zm-.2-.4-1.5,3.3h.4l.4-.9h1.8l.4.9h.4L87.1,25Z"/><path class="cls-2" d="M95,25.4l.7,1.7H94.2Zm-.1-.4-1.5,3.3h.4l.4-.9H96l.4.9h.4L95.2,25Z"/><polygon class="cls-2" points="52.5 19.5 49.3 19.5 49.3 18.4 52.1 18.4 52.1 17.1 49.3 17.1 49.3 16 52.5 16 52.5 14.7 47.9 14.7 47.9 20.8 52.5 20.8 52.5 19.5"/><path class="cls-2" d="M82.3,14.7H79.8v6.1h1.4V19h.9c1.5,0,2.5-.8,2.5-2.1S83.8,14.7,82.3,14.7Zm1,2.2a.92.92,0,0,1-1,.9h-1V16h1C82.9,16,83.3,16.3,83.3,16.9Z"/><polygon class="cls-2" points="56 20.8 57.2 20.8 59.6 14.8 59.6 14.7 58.1 14.7 56.6 18.8 55.1 14.7 55.1 14.7 53.5 14.7 55.9 20.8 56 20.8"/><polygon class="cls-2" points="71.3 19.5 68.4 19.5 68.4 14.7 67 14.7 67 20.8 71.3 20.8 71.3 19.5"/><polygon class="cls-2" points="65.4 19.5 62.1 19.5 62.1 18.4 64.9 18.4 64.9 17.1 62.1 17.1 62.1 16 65.3 16 65.3 14.7 60.7 14.7 60.7 20.8 65.4 20.8 65.4 19.5"/><path class="cls-2" d="M43.5,14.7H41.1v6.1h2.4a3,3,0,0,0,3.2-3A3.08,3.08,0,0,0,43.5,14.7Zm1.7,3.1a1.66,1.66,0,0,1-1.8,1.7h-1V16h1A1.68,1.68,0,0,1,45.2,17.8Z"/><path class="cls-2" d="M78.5,17.7a3.08,3.08,0,0,0-3.2-3.1,3.14,3.14,0,0,0-3.2,3.1,3.08,3.08,0,0,0,3.2,3.1A3,3,0,0,0,78.5,17.7Zm-1.5.1a1.71,1.71,0,0,1-1.7,1.8,1.79,1.79,0,0,1-1.8-1.8A1.71,1.71,0,0,1,75.2,16,1.63,1.63,0,0,1,77,17.8Z"/><polygon class="cls-2" points="100.1 20.8 101.4 20.8 101.4 17.1 104.3 20.8 104.3 20.8 105.5 20.8 105.5 14.7 104.1 14.7 104.1 18.3 101.4 14.7 101.3 14.7 100.1 14.7 100.1 20.8"/><polygon class="cls-2" points="87.5 17 89 19.4 89 19.4 89.1 19.4 90.7 17 90.7 20.8 92.1 20.8 92.1 14.7 90.6 14.7 89.1 17.2 87.6 14.7 87.6 14.7 86.1 14.7 86.1 20.8 87.5 20.8 87.5 17"/><polygon class="cls-2" points="95.2 18.4 98 18.4 98 17.1 95.2 17.1 95.2 16 98.4 16 98.4 14.7 93.8 14.7 93.8 20.8 98.5 20.8 98.5 19.5 95.2 19.5 95.2 18.4"/><polygon class="cls-2" points="110 20.8 110 16 111.8 16 111.8 14.7 106.8 14.7 106.8 16 108.6 16 108.6 20.8 110 20.8"/><polygon class="cls-2" points="69.8 11.6 71.2 11.6 71.2 6.9 73.1 6.9 73.1 5.5 68 5.5 68 6.9 69.8 6.9 69.8 11.6"/><rect class="cls-2" x="49" y="5.5" width="1.4" height="6.1"/><polygon class="cls-2" points="83 7.9 81.7 5.6 81.6 5.5 80 5.5 82.3 9.2 82.3 11.6 83.7 11.6 83.7 9.2 86.1 5.5 84.5 5.5 83 7.9"/><path class="cls-2" d="M131.3,5.5H130l-2.6,6v.1h1.4l.5-1.3h2.5l.5,1.3h1.5ZM129.9,9l.7-1.8.7,1.8Z"/><polygon class="cls-2" points="44.1 8 42.6 5.6 42.6 5.5 41.1 5.5 41.1 11.6 42.5 11.6 42.5 7.9 44 10.2 44 10.3 44.1 10.3 45.7 7.8 45.7 11.6 47.1 11.6 47.1 5.5 45.7 5.5 44.1 8"/><polygon class="cls-2" points="98.2 9.3 101.1 9.3 101.1 8 98.2 8 98.2 6.8 101.5 6.8 101.5 5.5 96.8 5.5 96.8 11.6 98.2 11.6 98.2 9.3"/><path class="cls-2" d="M92.3,11.7a3.14,3.14,0,0,0,3.2-3.1,3.08,3.08,0,0,0-3.2-3.1,3.14,3.14,0,0,0-3.2,3.1A3.08,3.08,0,0,0,92.3,11.7ZM90.6,8.6a1.71,1.71,0,0,1,1.7-1.8,1.79,1.79,0,0,1,1.8,1.8,1.71,1.71,0,0,1-1.7,1.8A1.79,1.79,0,0,1,90.6,8.6Z"/><polygon class="cls-2" points="136.4 10.3 136.4 5.5 135 5.5 135 11.6 139.4 11.6 139.4 10.3 136.4 10.3"/><rect class="cls-2" x="124.9" y="5.5" width="1.4" height="6.1"/><path class="cls-2" d="M107.3,10.4a2.74,2.74,0,0,1-1.8-.7l-.8,1a4,4,0,0,0,2.6,1c1.4,0,2.2-.7,2.2-1.9s-.8-1.5-1.9-1.8-1.3-.4-1.3-.7.3-.5.7-.5a2.4,2.4,0,0,1,1.5.6l.7-1.1a3.49,3.49,0,0,0-2.2-.8,1.88,1.88,0,0,0-2.1,1.8c0,1.3.9,1.6,2,1.9s1.2.4,1.2.7-.3.5-.8.5Z"/><path class="cls-2" d="M75.8,9.7h1l1.3,1.9h1.6v-.1L78.3,9.4a2,2,0,0,0,1.3-1.9,2,2,0,0,0-.5-1.4,2.44,2.44,0,0,0-1.8-.6H74.5v6.1h1.4V9.7Zm0-2.9H77c.6,0,1,.3,1,.8s-.4.8-1,.8H75.7V6.8Z"/><path class="cls-2" d="M64.9,10.4a2.74,2.74,0,0,1-1.8-.7l-.8,1a4,4,0,0,0,2.6,1c1.4,0,2.2-.7,2.2-1.9S66.3,8.3,65.2,8s-1.3-.4-1.3-.7.3-.5.7-.5a2.4,2.4,0,0,1,1.5.6l.7-1.1a3.49,3.49,0,0,0-2.2-.8,1.88,1.88,0,0,0-2.1,1.8c0,1.3.9,1.6,2,1.9s1.2.4,1.2.7S65.4,10.4,64.9,10.4Z"/><path class="cls-2" d="M113.7,5.4a3.14,3.14,0,0,0-3.2,3.1,3.08,3.08,0,0,0,3.2,3.1,3.1,3.1,0,1,0,0-6.2Zm1.7,3.2a1.71,1.71,0,0,1-1.7,1.8,1.79,1.79,0,0,1-1.8-1.8,1.71,1.71,0,0,1,1.7-1.8A1.63,1.63,0,0,1,115.4,8.6Z"/><rect class="cls-2" x="59.4" y="5.5" width="1.4" height="6.1"/><polygon class="cls-2" points="56.4 11.6 57.6 11.6 57.6 5.5 56.2 5.5 56.2 9.1 53.5 5.6 53.5 5.5 52.2 5.5 52.2 11.6 53.6 11.6 53.6 7.9 56.4 11.6"/><path class="cls-2" d="M123.6,10.6l-.9-.9a2.33,2.33,0,0,1-1.5.7,1.71,1.71,0,0,1-1.7-1.8,1.71,1.71,0,0,1,1.7-1.8,2.08,2.08,0,0,1,1.5.7l.9-1a3.41,3.41,0,0,0-2.4-.9A3.08,3.08,0,0,0,118,8.7a3,3,0,0,0,3.1,3.1A3.7,3.7,0,0,0,123.6,10.6Z"/></svg>