<svg id="Layer_1" data-name="Layer 1" xmlns="http://www.w3.org/2000/svg" viewBox="0 0 199 21"><defs><style>.cls-1{fill:#fff;}</style></defs><title>Artboard 1</title><g id="My-MSD"><g id="Rectangle-150-_-Copyright-_--2015-_--_-Imported-Layers-Copy-2" data-name="Rectangle-150-+-Copyright-©--2015-|--+-Imported-Layers-Copy-2"><path id="ic_NZ-Govt_logo" data-name="ic NZ-Govt logo" class="cls-1" d="M0,19.27s25.09-2.83,48.82-2.83c24.24,0,49.48,2.83,49.48,2.83v1s-25.41-2.68-49.47-2.68C25.09,17.58,0,20.27,0,20.27v-1H0Zm9.65-4.62H7.49L3.69,7A39.34,39.34,0,0,1,1.93,3L1.8,3c.1,1.24.15,2.69.17,4L2,14.65H1.26C.34,14.65,0,13.76,0,12.76V.19H2.36l4,8a28,28,0,0,1,1.43,3.46l.13,0c0-.42-.21-2.71-.21-4.3l0-7.09h2V14.65h0Zm36-1.51-.5,1.68H36.49V13.27L42.32,4a14,14,0,0,1,1-1.49c-.42,0-.94.06-1.66.06h-5L37.23.94h8.31V2.56l-5.77,9.22c-.32.55-.65,1-.9,1.39.44,0,.92,0,1.45,0h5.31Zm66.35.39a8.32,8.32,0,0,1-4.28,1.15,5.71,5.71,0,0,1-4.58-2,7.82,7.82,0,0,1-1.68-5.41,7.53,7.53,0,0,1,2.5-5.67A5.41,5.41,0,0,1,107.56.41a6,6,0,0,1,4.09,1.45l-1,1.26A4.91,4.91,0,0,0,107.6,2a3.29,3.29,0,0,0-3.11,1.85,6.62,6.62,0,0,0-.8,3.55,7.38,7.38,0,0,0,1,4.36,4,4,0,0,0,3.11,1.3,4.33,4.33,0,0,0,2.14-.55V8.43h-2.66L107,6.77h5v6.76h0Zm10.52-4.22c0,3.34-1.78,5.46-4.57,5.46s-4.55-2.14-4.55-5.56,1.74-5.54,4.51-5.54c3.1,0,4.61,2.48,4.61,5.65Zm-2.16.08c0-3.25-.94-4.24-2.46-4.24-1.68,0-2.37,1.2-2.37,3.84,0,3.21.82,4.28,2.46,4.28,1.47,0,2.37-1.13,2.37-3.88ZM132.14,4l-3.84,10.6h-1.8L122.74,4l2-.32L126.81,10c.23.71.46,1.55.63,2.27.17-.63.38-1.45.67-2.31l2-6h2Zm8.79,5.67h-6.4v.25A4,4,0,0,0,135,12a2.74,2.74,0,0,0,2.41,1.24,3.74,3.74,0,0,0,2.58-1l.73,1.15a5.37,5.37,0,0,1-3.63,1.34c-2.92,0-4.7-2.12-4.7-5.56a5.74,5.74,0,0,1,1.26-4.07,3.92,3.92,0,0,1,3.17-1.45,3.79,3.79,0,0,1,2.85,1.13c.92.95,1.26,2.12,1.28,4.53v.33h0Zm-2-1.43a3.85,3.85,0,0,0-.65-2.37,1.89,1.89,0,0,0-1.51-.74c-1.47,0-2.2,1.2-2.2,3.11h4.36Zm9-4.47-.67,1.93a1.58,1.58,0,0,0-.54-.11,2.2,2.2,0,0,0-2.18,2.14v6.78h-1.93V6.75a6.7,6.7,0,0,0-.4-2.62l1.87-.48a4.35,4.35,0,0,1,.36,1.62v.19a3.46,3.46,0,0,1,2.85-1.83,1.86,1.86,0,0,1,.65.11Zm9.22,10.74h-1.91V7.38c0-.94-.08-1.28-.34-1.62a1.3,1.3,0,0,0-1.07-.42,4.24,4.24,0,0,0-2.6,1.34v7.78h-1.91V6.65a5.72,5.72,0,0,0-.4-2.5l1.83-.5a3.34,3.34,0,0,1,.36,1.62,9.58,9.58,0,0,1,1.36-1,3.89,3.89,0,0,1,2-.53,2.63,2.63,0,0,1,2.48,1.49,3.3,3.3,0,0,1,.25,1.32v8Zm15.11,0h-1.91V6.94c0-1.2-.38-1.62-1.26-1.62a3.6,3.6,0,0,0-2.46,1.43v7.72h-1.89V7c0-1.18-.34-1.62-1.3-1.62A3.61,3.61,0,0,0,161,6.58v7.89h-1.91V6.75a5.72,5.72,0,0,0-.38-2.62l1.8-.44a3,3,0,0,1,.36,1.47,4.29,4.29,0,0,1,3-1.49,2.72,2.72,0,0,1,2.5,1.66,4.51,4.51,0,0,1,3.21-1.66c1.64,0,2.69,1,2.69,3v7.85h0Zm10-4.85h-6.4v.25a4,4,0,0,0,.44,2.1,2.74,2.74,0,0,0,2.41,1.24,3.74,3.74,0,0,0,2.58-1l.73,1.15a5.37,5.37,0,0,1-3.63,1.34c-2.92,0-4.7-2.12-4.7-5.56A5.74,5.74,0,0,1,175,5.07a3.92,3.92,0,0,1,3.17-1.45A3.79,3.79,0,0,1,181,4.76c.92.95,1.26,2.12,1.28,4.53v.33h0Zm-2-1.43a3.85,3.85,0,0,0-.65-2.37,1.89,1.89,0,0,0-1.51-.74c-1.47,0-2.2,1.2-2.2,3.11h4.36Zm11.53,6.27h-1.91V7.38c0-.94-.08-1.28-.34-1.62a1.3,1.3,0,0,0-1.07-.42,4.25,4.25,0,0,0-2.6,1.34v7.78H184V6.65a5.74,5.74,0,0,0-.4-2.5l1.83-.5a3.34,3.34,0,0,1,.36,1.62,9.58,9.58,0,0,1,1.36-1,3.89,3.89,0,0,1,2-.53,2.63,2.63,0,0,1,2.48,1.49,3.3,3.3,0,0,1,.25,1.32v8ZM198.94,4l-.53,1.36h-2.08v6.34c0,1.3.32,1.7,1.36,1.7a2.32,2.32,0,0,0,1-.21l.23,1.18a4.19,4.19,0,0,1-1.91.44,2.9,2.9,0,0,1-1.78-.52c-.44-.4-.78-.61-.78-2.14V5.33h-1.26V4h1.26a22.8,22.8,0,0,1,.13-2.69l2-.46c-.08.75-.19,2.08-.19,3.15h2.56ZM19.68,9.62H13.25v.25A4,4,0,0,0,13.69,12a2.75,2.75,0,0,0,2.42,1.24,3.76,3.76,0,0,0,2.59-1l.74,1.16a5.39,5.39,0,0,1-3.65,1.35c-2.93,0-4.72-2.13-4.72-5.59A5.77,5.77,0,0,1,12.34,5a3.94,3.94,0,0,1,3.18-1.45,3.81,3.81,0,0,1,2.87,1.14c.93.95,1.27,2.13,1.29,4.55v.34Zm-2-1.43A3.87,3.87,0,0,0,17,5.81a1.9,1.9,0,0,0-1.52-.74c-1.48,0-2.21,1.2-2.21,3.12h4.39Zm16.6-4.26-3,10.65H29.42L27.88,8.82c-.19-.74-.65-2.49-.65-2.49h-.06s-.42,1.79-.57,2.36L25,14.58H23.16L20.27,4l2-.32,1.35,5.93c.23,1.06.55,2.59.55,2.59h.06s.23-1.5.48-2.4l1.6-5.88h2l1.48,5.72c.29,1.14.59,2.47.59,2.57h.09c0-.11.34-1.81.48-2.51l1.31-5.78h2ZM53.93,9.62H47.5v.25A4,4,0,0,0,47.94,12a2.75,2.75,0,0,0,2.42,1.24,3.76,3.76,0,0,0,2.59-1l.74,1.16a5.39,5.39,0,0,1-3.65,1.35c-2.93,0-4.72-2.13-4.72-5.59A5.77,5.77,0,0,1,46.59,5a3.94,3.94,0,0,1,3.18-1.45,3.81,3.81,0,0,1,2.87,1.14c.93.95,1.27,2.13,1.29,4.55v.34h0Zm-2-1.43a3.87,3.87,0,0,0-.65-2.38,1.9,1.9,0,0,0-1.52-.74c-1.48,0-2.21,1.2-2.21,3.12H51.9Zm12,5.44-1,1.31a2.41,2.41,0,0,1-1.41-1.52,3.67,3.67,0,0,1-3,1.39c-2.11,0-3.42-1.07-3.42-3.1C55.07,9.27,57,8,60.45,8c.25,0,.46,0,.74,0v-.7c0-1.24-.17-2.09-1.65-2.09A5.83,5.83,0,0,0,56.3,6.4L55.41,5a8.31,8.31,0,0,1,4.43-1.39c1.54,0,2.66.57,3.06,1.69a4.81,4.81,0,0,1,.21,1.86c0,.76-.09,2.38-.09,3.92s0,2,.85,2.55ZM61.15,9.31c-.29,0-.46,0-.63,0-1.46,0-2.34.27-2.76.76a2,2,0,0,0-.55,1.54c0,1.16.59,1.83,1.67,1.83A2.63,2.63,0,0,0,61.09,12l.06-2.7Zm7.38,5.17a2.84,2.84,0,0,1-1.2.23,1.79,1.79,0,0,1-1.65-.8,2.67,2.67,0,0,1-.4-1.83V3.46a13.73,13.73,0,0,0-.23-3l2-.42a13.09,13.09,0,0,1,.19,3v8.55c0,1.12.06,1.37.27,1.56a.69.69,0,0,0,.65.15l.35,1.2Zm9.62-.84-1,1.31a2.41,2.41,0,0,1-1.41-1.52,3.67,3.67,0,0,1-3,1.39c-2.11,0-3.42-1.07-3.42-3.1,0-2.45,2-3.75,5.38-3.75.25,0,.46,0,.74,0v-.7c0-1.24-.17-2.09-1.65-2.09a5.83,5.83,0,0,0-3.25,1.2L69.67,5A8.32,8.32,0,0,1,74.1,3.61c1.54,0,2.66.57,3.06,1.69a4.82,4.82,0,0,1,.21,1.86c0,.76-.08,2.38-.08,3.92s0,2,.85,2.55ZM75.41,9.31c-.29,0-.46,0-.63,0-1.46,0-2.34.27-2.76.76a2,2,0,0,0-.55,1.54c0,1.16.59,1.83,1.67,1.83A2.63,2.63,0,0,0,75.35,12l.06-2.7ZM98,14.5H96.1a4.13,4.13,0,0,1-.19-1,3.53,3.53,0,0,1-2.72,1.16c-2.7,0-4.28-2-4.28-5.36,0-2.28.78-4,2.21-5a3.64,3.64,0,0,1,2.07-.61A3.15,3.15,0,0,1,95.77,5c0-.3,0-1.91,0-2.63V.15l1.94.32V11A12.3,12.3,0,0,0,98,14.5ZM95.7,11.82V6.29a2.71,2.71,0,0,0-2.24-1,2.07,2.07,0,0,0-1.83,1.08,5.61,5.61,0,0,0-.55,2.91c0,2,.25,2.61.82,3.2a2,2,0,0,0,1.56.55,2.51,2.51,0,0,0,2.24-1.22ZM87.25,14.5H85.33V7.37c0-.95-.09-1.29-.34-1.62a1.31,1.31,0,0,0-1.08-.42A4.26,4.26,0,0,0,81.3,6.67V14.5h-1c-.61,0-.94-.46-.94-1.18V6.63A5.75,5.75,0,0,0,79,4.12l1.84-.51a3.35,3.35,0,0,1,.36,1.62,9.75,9.75,0,0,1,1.37-1,3.92,3.92,0,0,1,2-.53A2.64,2.64,0,0,1,87,5.18a3.31,3.31,0,0,1,.25,1.33Z"/></g></g></svg>